<?xml version="1.0" encoding="UTF-8"?>
<svg width="256px" height="256px" viewBox="0 0 256 256" version="1.1" xmlns="http://www.w3.org/2000/svg" xmlns:xlink="http://www.w3.org/1999/xlink" xmlns:sketch="http://www.bohemiancoding.com/sketch/ns">
    <!-- Generator: Sketch 3.4.2 (15855) - http://www.bohemiancoding.com/sketch -->
    <title>Admin</title>
    <desc>Created with Sketch.</desc>
    <defs></defs>
    <g id="Page-1" stroke="none" stroke-width="1" fill="none" fill-rule="evenodd" sketch:type="MSPage">
        <g id="Admin" sketch:type="MSArtboardGroup" fill="#44A5F2">
            <path d="M128.113281,248.226562 C194.450015,248.226562 248.226562,194.450015 248.226562,128.113281 C248.226562,61.7765478 194.450015,8 128.113281,8 C61.7765478,8 8,61.7765478 8,128.113281 C8,194.450015 61.7765478,248.226562 128.113281,248.226562 Z M128.113281,238.601394 C189.134181,238.601394 238.601394,189.134181 238.601394,128.113281 C238.601394,67.0923817 189.134181,17.6251689 128.113281,17.6251689 C67.0923817,17.6251689 17.6251689,67.0923817 17.6251689,128.113281 C17.6251689,189.134181 67.0923817,238.601394 128.113281,238.601394 Z" id="Oval-1" sketch:type="MSShapeGroup"></path>
            <g id="admin-man" sketch:type="MSLayerGroup" transform="translate(63.886265, 59.285621)">
                <g id="surface1" sketch:type="MSShapeGroup">
                    <path d="M63.8268559,0.962886158 C48.8083212,1.30052264 39.2919976,7.45299516 35.2028535,16.8567743 C31.3012856,25.8228767 32.1516273,37.0648954 34.952753,48.8196193 C33.4771584,50.5703228 32.2391633,52.9337718 32.5517881,56.6102509 L32.5517881,56.6852795 L32.5642923,56.7728155 C33.1020092,60.6743834 34.1774398,63.4505006 35.6655386,65.4137888 C36.4158402,66.376675 37.4787665,66.4141909 38.40414,66.9394003 C38.9418569,70.3907873 39.9797716,73.8171659 41.4053461,76.6307958 C42.218172,78.2439433 43.0810179,79.6570136 43.9688755,80.8449886 C44.3565321,81.3827055 44.894249,81.720342 45.3194183,82.1705229 C45.3569341,86.259667 45.5320029,89.4609535 45.0568135,93.5876103 C44.1189358,96.0761112 41.7429826,98.1144311 37.8414147,100.090224 C33.8272991,102.116039 28.5626842,103.916763 23.2230375,106.230192 C17.8833941,108.531117 12.431203,111.369758 8.07945413,115.784031 C3.72770528,120.198304 0.651467426,126.300757 0.20128651,134.278965 L0.0262177549,137.65532 L128.440323,137.65532 L128.252747,134.278965 C127.802566,126.300757 124.75134,120.210809 120.424603,115.796535 C116.097862,111.369758 110.658175,108.531117 105.306024,106.230192 C99.966381,103.916763 94.6767544,102.116039 90.6001145,100.077719 C86.6610339,98.1144311 84.1725331,96.0510995 83.0845951,93.5500944 C82.8469988,89.3484059 82.8219903,86.0845951 82.8219903,82.133007 C83.2221511,81.6828261 83.7723723,81.3451896 84.1475214,80.8199802 C85.0103706,79.6194977 85.8357007,78.1939232 86.6235181,76.6057874 C88.0115767,73.7921543 89.074503,70.3907873 89.7247644,67.0144321 C90.7501749,66.4892194 91.9006372,66.4517067 92.7009588,65.4137888 C94.2390777,63.3879731 95.2269756,60.561839 95.5896205,56.6352594 L95.5896205,56.6102509 C95.8772369,53.2213882 94.8268147,50.7954149 93.3012,48.9446711 C94.976875,43.8176091 96.9401632,35.6518283 96.3024061,27.2484512 C95.9647729,22.6466019 94.8143105,18.0322483 92.0882134,14.2182131 C89.5872083,10.7418176 85.53558,8.27832844 80.4460339,7.21539887 C77.044667,2.75110559 70.9297103,0.962886158 63.9143919,0.962886158 L63.8268559,0.962886158 Z M63.9143919,7.36545918 C70.366985,7.36545918 74.5311577,9.24121459 75.8691962,11.529635 L76.6445062,12.8801778 L78.1826251,13.0927624 C82.584394,13.7055079 85.0853991,15.4562114 86.8736186,17.9447123 C88.661838,20.4332132 89.6372284,23.8971044 89.9248448,27.736148 C90.5125818,35.4267362 88.2866856,44.442862 86.8235985,48.5445103 L85.8732165,51.2205842 L88.3992301,52.4835909 C87.9740608,52.2710063 89.4496522,53.2213882 89.1995517,56.072534 C88.9244427,59.1737803 88.1491296,60.8119395 87.6114159,61.5247251 C87.073699,62.2250065 86.8486069,62.1124621 86.9486471,62.1124621 L84.1850373,62.1124621 L83.7848765,64.8510635 C83.3722114,67.739722 82.1967375,71.1160804 80.8837106,73.77965 C80.2334493,75.1051843 79.5331678,76.2681509 78.9454308,77.0809768 C78.3702013,77.8938026 77.7449484,78.3689952 78.0075563,78.2189349 L76.3944057,79.1318009 L76.3944057,80.9950489 C76.3944057,84.2088429 76.4319215,87.034977 76.5319617,90.0236789 L64.2270167,96.8514212 L51.7720114,89.9361429 C51.8720516,86.8474008 51.7344955,84.1088026 51.7344955,80.9950489 L51.7344955,79.1318009 L50.121348,78.2189349 C50.3714485,78.3439835 49.7211872,77.8562899 49.1084418,77.0309567 C48.4956963,76.2181308 47.7829075,75.0676685 47.1201419,73.7421342 C45.7821034,71.1035762 44.6316411,67.7772378 44.3690363,65.0011238 L44.0814199,62.1124621 L41.180254,62.1124621 C41.6554466,62.1124621 41.3428218,62.2875309 40.767589,61.5247251 C40.179852,60.7619194 39.3795304,59.0362243 38.9418569,56.0100097 C38.7917966,53.4214686 40.3424197,52.1084418 40.0673076,52.2835105 L41.9555672,51.0205038 L41.4053461,48.8321235 C38.4416559,37.1649356 37.9539591,26.5731782 41.0677096,19.4077995 C44.1814601,12.2424207 50.4965004,7.67808722 63.9143919,7.36545918 L63.9143919,7.36545918 Z M50.7340935,96.6888566 L58.6872896,101.10313 L51.3843548,110.18178 L45.4319627,102.953874 C47.6953747,101.290706 49.5711269,99.2648935 50.7340935,96.6888566 L50.7340935,96.6888566 Z M77.4948479,96.8014011 C78.7578579,99.3524262 80.7336503,101.30321 83.034575,102.941369 L77.0696786,110.18178 L69.7667438,101.10313 L77.4948479,96.8014011 Z M39.8172071,106.217688 L48.9583815,117.284634 C49.5586227,118.022432 50.483993,118.460105 51.4468823,118.447601 C52.4097685,118.447601 53.3101303,117.99742 53.9228758,117.247118 L60.2004001,109.443983 L62.6263735,111.407271 C62.6263735,111.407271 57.0116178,121.048646 55.3984704,131.252747 L7.35416106,131.252747 C8.24201866,126.688413 9.9301979,123.036946 12.6437876,120.273336 C16.0451545,116.809442 20.7345399,114.270924 25.7615585,112.095048 C30.4759523,110.069235 35.4029339,108.34354 39.8172071,106.217688 L39.8172071,106.217688 Z M88.6368264,106.217688 C93.0886154,108.34354 98.0656171,110.069235 102.780011,112.095048 C107.794525,114.270924 112.458899,116.809442 115.847762,120.260829 C118.548847,123.024442 120.224522,126.688413 121.099872,131.252747 L73.0805747,131.252747 C71.4799315,120.873577 65.82766,111.407271 65.82766,111.407271 L68.2536365,109.443983 L74.5311577,117.247118 C75.1439031,117.99742 76.0442649,118.447601 77.0071543,118.447601 C77.9700405,118.460105 78.8954107,118.022432 79.495652,117.284634 L88.6368264,106.217688 Z" id="Shape"></path>
                </g>
            </g>
        </g>
    </g>
</svg>