<?xml version="1.0" encoding="UTF-8"?>
<svg width="256px" height="256px" viewBox="0 0 256 256" version="1.1" xmlns="http://www.w3.org/2000/svg" xmlns:xlink="http://www.w3.org/1999/xlink" xmlns:sketch="http://www.bohemiancoding.com/sketch/ns">
    <!-- Generator: Sketch 3.4.2 (15855) - http://www.bohemiancoding.com/sketch -->
    <title>Woman</title>
    <desc>Created with Sketch.</desc>
    <defs></defs>
    <g id="Page-1" stroke="none" stroke-width="1" fill="none" fill-rule="evenodd" sketch:type="MSPage">
        <g id="Woman" sketch:type="MSArtboardGroup" fill="#44A5F2">
            <path d="M128.113281,248.226562 C194.450015,248.226562 248.226562,194.450015 248.226562,128.113281 C248.226562,61.7765478 194.450015,8 128.113281,8 C61.7765478,8 8,61.7765478 8,128.113281 C8,194.450015 61.7765478,248.226562 128.113281,248.226562 Z M128.113281,238.601394 C189.134181,238.601394 238.601394,189.134181 238.601394,128.113281 C238.601394,67.0923817 189.134181,17.6251689 128.113281,17.6251689 C67.0923817,17.6251689 17.6251689,67.0923817 17.6251689,128.113281 C17.6251689,189.134181 67.0923817,238.601394 128.113281,238.601394 Z" id="Oval-1" sketch:type="MSShapeGroup"></path>
            <g id="woman" sketch:type="MSLayerGroup" transform="translate(60.077728, 57.077728)">
                <g id="surface1" sketch:type="MSShapeGroup">
                    <path d="M71.2995226,0 C57.3947486,0 47.4344957,4.7624508 40.8383023,12.1106128 C34.2421089,19.4455799 30.9703969,29.023251 29.0311152,38.6273086 C27.078642,48.2445578 26.4849854,58.0069241 25.6274811,65.8432035 C25.2053247,69.7613416 24.7040124,73.2045537 24.0180082,75.7902615 C23.3320041,78.3759693 22.4217303,79.9854422 21.7884957,80.5527157 C21.0629136,81.1991418 20.6407572,82.1094157 20.6407572,83.072459 C20.6407572,85.842862 22.4876914,88.059183 24.4929342,89.3784216 C26.5113685,90.6844688 28.8991931,91.5419731 31.6695926,92.2939383 C36.2209652,93.5340243 42.0651934,94.2596031 47.8830352,94.9851852 C47.7247265,95.39415 47.6587654,95.8163064 47.6587654,96.2516543 L47.6587654,96.3044239 C46.4582574,98.5339364 44.0440531,100.473218 40.2710288,102.333344 C35.9703124,104.430934 30.3767404,106.304255 24.7172039,108.718459 C19.0576708,111.145858 13.2925986,114.114148 8.68845642,118.77106 C4.09750581,123.427971 0.852176955,129.865856 0.377251029,138.2826 C0.337673025,139.206066 0.667485228,140.11634 1.3007198,140.789152 C1.94714591,141.461965 2.83103667,141.844543 3.75450206,141.844543 L132.090041,141.844543 C133.01351,141.844543 133.897397,141.461965 134.543827,140.789152 C135.177061,140.11634 135.50687,139.206066 135.467292,138.2826 C134.992366,129.865856 131.773424,123.441163 127.20886,118.784251 C122.644292,114.114148 116.905603,111.119475 111.259262,108.692076 C105.626115,106.251485 100.045734,104.351782 95.7450146,102.201422 C91.9192241,100.301718 89.4390554,98.2832836 88.1725863,95.9350371 C88.1461998,95.5788418 88.0538556,95.2358414 87.9219301,94.9060326 C94.030006,94.154064 100.138082,93.1910206 104.794994,91.7002817 C107.604971,90.8031994 109.992792,89.8137696 111.932074,88.5868784 C113.858164,87.3599873 115.876599,85.6845533 115.876599,82.7426502 C115.876599,81.7927984 115.467634,80.8825245 114.768438,80.24929 C114.280321,79.8007471 113.528352,78.4419338 113.040235,76.1200737 C112.565309,73.7982136 112.301461,70.6848103 112.143152,67.1228642 C111.852921,59.9989753 111.958461,51.1204998 110.876683,42.3475634 C109.781714,33.5746236 107.499432,24.7753042 101.90586,17.9680326 C96.6816749,11.5697224 88.357278,7.45369772 76.8535167,6.95238871 L74.3205784,1.87332062 C73.7533083,0.72558212 72.5791833,0 71.2995226,0 L71.2995226,0 Z M69.3866274,7.09750581 L71.6557179,11.6356869 C72.2229914,12.783422 73.397113,13.5090041 74.6767737,13.5090041 C85.9298788,13.5090041 92.3677636,16.9654112 96.6816749,22.2423659 C101.008778,27.5193206 103.145946,35.0389794 104.174951,43.1786813 C105.190764,51.331578 105.085224,59.9989753 105.401842,67.3999035 C105.56015,71.1069667 105.810807,74.5106008 106.444041,77.5052735 C106.839814,79.4313603 107.88201,80.9484856 108.87144,82.5183805 C108.765901,82.5843416 108.673554,82.6503027 108.290975,82.9009589 C107.182815,83.6001545 105.203958,84.4840453 102.736981,85.2755885 C97.803027,86.8454834 90.8638332,88.1779136 83.8190969,88.8375346 C82.8692451,88.9298788 81.9985492,89.4179996 81.4312757,90.1831564 C80.8508107,90.9483165 80.6397325,91.9245515 80.8244276,92.8612118 C81.0882754,94.2068335 81.1014669,95.2358414 81.1014669,96.2516543 C81.1014669,96.3967714 81.1014669,96.5418885 81.12785,96.6738107 C80.8376192,97.1355451 80.2043846,98.0326274 78.331064,99.0088623 C75.8772817,100.301718 72.1306439,101.317531 67.9222716,101.317531 C63.6743247,101.317531 59.914492,100.367679 57.4739012,99.1144014 C55.8776233,98.2964751 55.1124632,97.4785455 54.7298848,96.8980804 C55.0596936,94.5366457 55.0860801,93.1910206 55.0860801,92.2015907 C55.0860801,90.4865821 53.8064194,89.0486128 52.104599,88.8507262 C45.0466745,88.0064134 38.1998249,87.0565616 33.4241792,85.763706 C31.036358,85.1304714 29.1762323,84.3653146 28.199994,83.7320801 C27.3952593,83.2043846 27.5139899,83.1911931 27.5403764,83.1911931 C28.7144979,81.449798 29.954584,79.7611725 30.5482406,77.518465 C31.3925533,74.3127142 31.8938623,70.6188459 32.3424052,66.5819772 C33.2262959,58.48185 33.833144,48.9701399 35.6405002,39.9729338 C37.4610513,30.9757243 40.4952985,22.5853663 45.8646008,16.6224074 C50.8908994,11.0156439 58.278636,7.54604527 69.3866274,7.09750581 L69.3866274,7.09750581 Z M84.8085268,102.781887 C86.9984647,105.037786 89.7820558,106.779181 92.7239589,108.243533 C97.6579132,110.697319 103.29106,112.597022 108.594401,114.879305 C113.884547,117.174782 118.805307,119.852834 122.380444,123.493932 C125.23,126.409452 126.997782,130.274821 127.921247,135.090041 L7.9232963,135.090041 C8.85995661,130.274821 10.6409297,126.422644 13.5036768,123.520319 C17.1051975,119.866028 22.0523434,117.201165 27.3688762,114.932074 C32.6854055,112.662984 38.3185556,110.802858 43.2261235,108.38865 C46.1944097,106.950681 48.9911957,105.235669 51.167942,103.006156 C52.1309854,103.810891 53.2259544,104.523282 54.3868844,105.116938 C58.0279832,106.990259 62.711278,108.072033 67.9222716,108.072033 C73.1728433,108.072033 77.869333,106.88472 81.4840453,104.971821 C82.6845533,104.351782 83.8190969,103.613008 84.8085268,102.781887 L84.8085268,102.781887 Z" id="Shape"></path>
                </g>
            </g>
        </g>
    </g>
</svg>