<?xml version="1.0" encoding="UTF-8"?>
<svg width="256px" height="256px" viewBox="0 0 256 256" version="1.1" xmlns="http://www.w3.org/2000/svg" xmlns:xlink="http://www.w3.org/1999/xlink" xmlns:sketch="http://www.bohemiancoding.com/sketch/ns">
    <!-- Generator: Sketch 3.4.2 (15855) - http://www.bohemiancoding.com/sketch -->
    <title>Man Filled</title>
    <desc>Created with Sketch.</desc>
    <defs>
        <linearGradient x1="50%" y1="0%" x2="50%" y2="100%" id="linearGradient-1">
            <stop stop-color="#4DD4F6" offset="0%"></stop>
            <stop stop-color="#44A6F2" offset="100%"></stop>
        </linearGradient>
    </defs>
    <g id="Page-1" stroke="none" stroke-width="1" fill="none" fill-rule="evenodd" sketch:type="MSPage">
        <g id="Man-Filled" sketch:type="MSArtboardGroup">
            <circle id="Oval-1" fill="url(#linearGradient-1)" sketch:type="MSShapeGroup" cx="128.113281" cy="128.113281" r="120.113281"></circle>
            <g id="man" sketch:type="MSLayerGroup" transform="translate(60.513497, 56.832550)" fill="#FFFFFF">
                <g id="surface1" transform="translate(0.000000, -0.000000)" sketch:type="MSShapeGroup">
                    <path d="M67.1795475,0.365769637 C51.4731967,0.654684126 41.4400428,6.99763098 37.1326155,16.8600645 C33.022175,26.2497316 33.9414414,38.10829 36.9224971,50.3739502 C35.3203459,52.2518843 34.0465006,54.7733052 34.5061354,58.568568 C35.0051683,62.705275 36.1476846,65.6469327 37.7629707,67.7087187 C38.6559739,68.8381068 39.8247567,68.943166 40.9147468,69.4947251 C41.505704,73.0142084 42.4906348,76.5336917 43.9614637,79.4753494 C44.8019373,81.1694282 45.7606017,82.7321847 46.693003,83.9928951 C47.1132398,84.5575892 47.7173319,84.8858984 48.1638318,85.3586648 C48.1900983,89.5085033 48.2032298,92.9623254 47.8486542,97.3354139 C46.7586641,99.9750255 44.2109801,102.102476 40.0742732,104.164262 C35.8062439,106.291713 30.2512377,108.261571 24.6305704,110.677933 C19.009903,113.094294 13.2316468,116.035952 8.66157152,120.658557 C4.09149619,125.281162 0.860927387,131.624112 0.361894492,139.98945 L0.151776086,143.561463 L135.047793,143.561463 L134.837674,139.98945 C134.338645,131.624112 131.094941,125.281162 126.537997,120.658557 C121.981053,116.035952 116.268462,113.094294 110.674058,110.677933 C105.079657,108.261571 99.5903116,106.291713 95.3354139,104.164262 C91.2512365,102.115608 88.6772861,100.04069 87.5610329,97.4404731 C87.1933257,93.014855 87.2195922,89.5479013 87.2458553,85.3586648 C87.6923586,84.8727668 88.2964473,84.5575892 88.7166841,83.9928951 C89.6359538,82.7190531 90.5158221,81.1562967 91.3431642,79.4753494 C92.774595,76.5336917 93.8120555,73.0010769 94.3898811,69.4947251 C95.4404731,68.943166 96.5698612,68.8118403 97.436598,67.7087187 C99.051884,65.6469327 100.194404,62.705275 100.693433,58.568568 C101.139937,54.8914959 99.9054892,52.4620027 98.3821308,50.5840686 C100.02368,45.2523158 102.124864,36.6374611 101.428848,27.7862216 C101.048009,22.9534983 99.8135616,18.1339065 96.9113019,14.1285252 C94.2585587,10.4514531 89.9511314,7.77244344 84.514316,6.66932181 C80.9817011,2.08611493 74.6256194,0.365769637 67.2846067,0.365769637 L67.1795475,0.365769637 Z M67.2846067,7.08955862 L67.3896659,7.08955862 C74.152853,7.1158251 78.539073,9.09881504 79.7866519,11.2919267 L80.6271255,12.6576964 L82.2030135,12.8678148 C86.8781481,13.5113016 89.5571577,15.4023672 91.4482234,18.0157157 C93.339289,20.6290642 94.3898811,24.2798699 94.7050587,28.3115176 C95.3354139,36.3748131 93.0109799,45.7644768 91.5532826,50.1638318 L90.712809,52.7903119 L93.0241114,54.1560815 C92.8796542,54.0641539 94.3110884,55.0359532 93.9696443,57.8331536 C93.5756739,61.1293869 92.7877299,62.8365973 92.1836378,63.6114098 C91.5795491,64.3862222 91.2643715,64.3468242 91.238105,64.3468242 L88.4015065,64.5569426 L88.0863289,67.2884819 C87.7711513,70.1907415 86.6023685,73.7496229 85.2497304,76.5336917 C84.5668456,77.9257278 83.8708292,79.1470402 83.2536056,80.0006454 C82.6363819,80.8542506 81.9928951,81.327017 82.3080727,81.1562967 L80.5220663,82.1018295 L80.5220663,84.0979543 C80.5220663,88.9700757 80.3250794,92.9623254 80.8372439,98.5961243 L80.8372439,99.0163611 L81.0473623,99.436598 C82.9646944,104.59763 87.4034441,107.815071 92.288697,110.257696 C97.1739499,112.700324 102.781486,114.499462 108.047577,116.771366 C113.313669,119.043271 118.133261,121.761679 121.705274,125.386221 C124.541872,128.262218 126.327879,132.070612 127.273412,136.837674 L7.9261571,136.837674 C8.87168993,132.083747 10.6445648,128.262218 13.4942949,125.386221 C17.0794393,121.761679 21.9646922,119.043271 27.2570504,116.771366 C32.5494086,114.499462 38.1175464,112.700324 43.0159309,110.257696 C47.9143154,107.815071 52.444996,104.59763 54.3623248,99.436598 L54.5724432,98.5961243 C55.0846076,92.9623254 54.8876208,88.9700757 54.8876208,84.0979543 L54.8876208,82.1018295 L53.1016143,81.1562967 C53.4036604,81.3138855 52.6813775,80.8542506 52.0510223,80.0006454 C51.4206671,79.1470402 50.6458546,77.9257278 49.9498383,76.5336917 C48.5578055,73.7496229 47.4152858,70.1644784 47.1132398,67.2884819 L46.7980622,64.5569426 L43.9614637,64.3468242 C43.9352006,64.3468242 43.620023,64.3862222 43.0159309,63.6114098 C42.4118421,62.8365973 41.6238981,61.1293869 41.2299244,57.8331536 C40.9016152,55.0359532 42.3199145,54.0641539 42.1754572,54.1560815 L44.3817005,52.7903119 L43.7513453,50.3739502 C40.5864376,38.1870827 40.0348751,27.1164683 43.3311085,19.5916038 C46.6142102,12.0930023 53.3117327,7.37847311 67.2846067,7.08955862 L67.2846067,7.08955862 Z" id="Shape"></path>
                </g>
            </g>
        </g>
    </g>
</svg>