<?xml version="1.0" encoding="UTF-8"?>
<svg width="256px" height="256px" viewBox="0 0 256 256" version="1.1" xmlns="http://www.w3.org/2000/svg" xmlns:xlink="http://www.w3.org/1999/xlink" xmlns:sketch="http://www.bohemiancoding.com/sketch/ns">
    <!-- Generator: Sketch 3.4.2 (15855) - http://www.bohemiancoding.com/sketch -->
    <title>Nerd Filled</title>
    <desc>Created with Sketch.</desc>
    <defs>
        <linearGradient x1="50%" y1="0%" x2="50%" y2="100%" id="linearGradient-1">
            <stop stop-color="#4DD4F6" offset="0%"></stop>
            <stop stop-color="#44A6F2" offset="100%"></stop>
        </linearGradient>
    </defs>
    <g id="Page-1" stroke="none" stroke-width="1" fill="none" fill-rule="evenodd" sketch:type="MSPage">
        <g id="Nerd-Filled" sketch:type="MSArtboardGroup">
            <circle id="Oval-1" fill="url(#linearGradient-1)" sketch:type="MSShapeGroup" cx="128.113281" cy="128.113281" r="120.113281"></circle>
            <g id="nerd" sketch:type="MSLayerGroup" transform="translate(66.676317, 53.190154)" fill="#FFFFFF">
                <g id="surface1" transform="translate(-0.000000, 0.000000)" sketch:type="MSShapeGroup">
                    <path d="M59.9385018,0 C39.5102436,0 21.5052781,6.67284251 10.6765456,20.2292443 C0.0351209651,33.5515144 -3.25447184,53.2305413 4.2144259,78.1073601 C2.59889747,80.1209191 1.49846254,82.7081076 1.49846254,85.9742884 C1.49846254,92.4129962 5.9704382,97.751269 11.8003925,99.4604513 C13.1583742,110.827695 18.9297956,122.733448 27.2532875,132.239319 C36.1035819,142.342236 47.7400816,149.846254 59.9385018,149.846254 C72.1369249,149.846254 83.8085426,142.389063 92.623716,132.239319 C100.923793,122.686621 106.589854,110.605267 107.795649,99.0858357 C113.660725,97.4234803 118.050752,92.2842213 118.097579,85.7869806 L118.097579,85.6933267 C118.167821,82.5559208 117.172746,79.9101993 115.662578,77.9200523 C116.786425,74.3260828 120.111138,62.759825 119.877004,50.0111874 C119.736523,42.4018088 118.320008,34.4061056 113.976807,27.815211 C109.797502,21.4818661 102.773459,16.7640497 92.623716,15.2655872 C87.484457,8.82688242 77.2644749,0 59.9385018,0 L59.9385018,0 Z M59.9385018,5.99385018 C75.9650262,5.99385018 84.5577738,14.2588091 88.6902518,19.7609748 C89.1819363,20.4399671 89.9194586,20.8731157 90.7506378,20.9784756 C100.162856,22.0906165 105.57137,25.8835998 109.01315,31.0930978 C112.454933,36.3025957 113.754378,43.186158 113.883153,50.1048413 C114.058755,59.7511939 111.928127,69.0112249 110.605267,73.8929342 C110.324305,73.7641593 110.043343,73.6353874 109.762381,73.5183186 C107.807355,72.7222603 105.88745,72.3125237 104.424109,72.1135099 C102.925646,56.7191479 97.4937193,48.5595518 91.4062152,43.3617599 C87.8239546,40.3063018 84.2416911,38.2810368 81.291593,36.1504089 C78.3414949,34.0197839 76.0820951,31.935983 74.6421655,28.7517501 C74.103657,27.5108373 72.8042082,26.773312 71.4579326,26.9723258 C70.977957,27.0542737 70.5330995,27.2415815 70.1467778,27.5342492 C68.1332188,28.9975908 67.7234822,30.7770151 66.9625449,32.5915603 C66.2016077,34.4061056 65.4172554,36.4430766 64.1529277,38.4917566 C61.6125661,42.6008226 57.5035001,46.8854874 48.1381092,49.2619561 C36.9581731,52.1301063 28.798577,54.6704709 23.1325155,59.65754 C19.550255,62.806652 17.3259732,66.892306 16.1084723,72.1135099 C14.6451308,72.2891117 12.5964508,72.6637274 10.1146222,73.7056264 C9.86878141,73.8109863 9.62294065,73.9514671 9.3653909,74.080242 C3.14911194,51.6618368 6.42699875,35.1670428 15.3592411,23.9754007 C24.7597529,12.2101291 40.8096923,5.99385018 59.9385018,5.99385018 L59.9385018,5.99385018 Z M72.1135099,35.5884854 C73.8226953,37.6956984 75.6957734,39.5453646 77.7327445,41.0204121 C81.0457522,43.4085868 84.5109469,45.3519069 87.5664049,47.9508014 C93.665615,53.1602993 98.8985279,60.7930929 98.8985279,80.9169774 C98.8868219,81.9939973 99.4487454,83.0007783 100.385284,83.5509928 C101.321824,84.0895043 102.469082,84.0895043 103.405622,83.5509928 C104.342161,83.0007783 104.904084,81.9939973 104.892378,80.9169774 C104.892378,80.0155592 104.822139,79.1609681 104.798724,78.2946679 C105.665024,78.4585638 106.578148,78.6692835 107.514688,79.0438992 C108.252213,79.3482759 108.978029,79.7228915 109.575074,80.1677461 C109.832623,80.7179636 110.265772,81.1745271 110.792574,81.4789008 C111.565221,82.4622669 112.162262,83.5627018 112.103729,85.5996728 L112.103729,85.6933267 C112.103729,90.2940743 109.188752,93.3846532 104.892378,93.8412168 L102.363723,94.1221785 L102.176415,96.6508341 C101.626197,106.976179 96.0772046,119.045824 88.0346744,128.305855 C79.9921443,137.565886 69.6199753,143.852404 59.9385018,143.852404 C50.2570282,143.852404 39.8263263,137.530765 31.7486751,128.305855 C23.671027,119.080945 18.1103254,107.11666 17.4196271,96.9317958 L17.2323193,94.4031403 L14.7036637,94.1221785 C10.8755594,93.7007359 7.49231272,90.0950604 7.49231272,85.9742884 C7.49231272,83.6095287 8.17130506,82.0876512 9.27173699,81.0106313 C9.40051186,80.9286834 9.52928674,80.8350294 9.64635263,80.7296695 C10.4189989,80.0740922 11.332123,79.5707017 12.362316,79.1375531 C13.3105611,78.7395255 14.2119822,78.4702697 15.0782793,78.2946679 C14.9846254,79.6175286 14.9846254,80.9755103 14.9846254,82.4154399 C14.9729194,83.4924599 15.5348429,84.4992409 16.471382,85.0494553 C17.4079211,85.5879668 18.55518,85.5879668 19.4917191,85.0494553 C20.4282581,84.4992409 20.9901816,83.4924599 20.9784756,82.4154399 C20.9784756,72.8042082 22.8515538,67.863963 27.0659797,64.1529277 C31.2686996,60.4535983 38.6088255,57.8781158 49.5429179,55.0684985 C49.5780388,55.0567925 49.6014508,55.0802045 49.6365718,55.0684985 C60.2897054,52.3408291 66.0611268,46.6747676 69.2102387,41.5823356 C70.6150474,39.3112298 71.4111056,37.2859618 72.1135099,35.5884854 L72.1135099,35.5884854 Z M59.9385018,71.9262021 C53.7807587,71.9262021 48.5595518,75.1923829 47.6698397,75.7660124 C45.3987339,75.157262 42.9637322,74.9231272 40.4584887,74.9231272 C36.3962496,74.9231272 32.5096124,75.5318776 29.3136735,77.5454366 C26.1177346,79.5589957 23.9754007,83.305152 23.9754007,87.8473666 C23.9754007,97.1776366 31.2921116,104.892378 40.4584887,104.892378 C49.6248658,104.892378 56.9415767,97.1776366 56.9415767,87.8473666 C56.9415767,84.4524139 55.8060238,81.4437799 53.9446516,79.3248609 C55.7591968,78.5873356 57.9951846,77.9200523 59.9385018,77.9200523 C61.8818219,77.9200523 64.1178067,78.5873356 65.9323519,79.3248609 C64.0709797,81.4437799 62.9354268,84.4524139 62.9354268,87.8473666 C62.9354268,97.1776366 70.2521377,104.892378 79.4185148,104.892378 C88.5848919,104.892378 95.9016028,97.1776366 95.9016028,87.8473666 C95.9016028,83.305152 93.7592689,79.5589957 90.56333,77.5454366 C87.3673911,75.5318776 83.4807539,74.9231272 79.4185148,74.9231272 C76.9132743,74.9231272 74.4782726,75.157262 72.2071638,75.7660124 C71.3174517,75.1923829 66.0962478,71.9262021 59.9385018,71.9262021 L59.9385018,71.9262021 Z M40.4584887,80.9169774 C43.9236833,80.9169774 46.7684215,81.4906068 48.4190709,82.5090938 C50.0697203,83.5275808 50.9477265,84.7216667 50.9477265,87.8473666 C50.9477265,94.0987666 46.276737,98.8985279 40.4584887,98.8985279 C34.6402403,98.8985279 29.9692509,94.0987666 29.9692509,87.8473666 C29.9692509,84.8972685 30.823842,83.6563557 32.4979064,82.6027477 C34.1719708,81.5491427 37.028415,80.9169774 40.4584887,80.9169774 L40.4584887,80.9169774 Z M79.4185148,80.9169774 C82.8485885,80.9169774 85.7050327,81.5491427 87.3790971,82.6027477 C89.0531615,83.6563557 89.9077526,84.8972685 89.9077526,87.8473666 C89.9077526,94.0987666 85.2367632,98.8985279 79.4185148,98.8985279 C73.6002665,98.8985279 68.929277,94.0987666 68.929277,87.8473666 C68.929277,84.7216667 69.8072832,83.5275808 71.4579326,82.5090938 C73.108582,81.4906068 75.9533202,80.9169774 79.4185148,80.9169774 L79.4185148,80.9169774 Z" id="Shape"></path>
                </g>
            </g>
        </g>
    </g>
</svg>