<?xml version="1.0" encoding="UTF-8"?>
<svg width="395px" height="32px" viewBox="0 0 395 32" version="1.1" xmlns="http://www.w3.org/2000/svg" xmlns:xlink="http://www.w3.org/1999/xlink">
    <!-- Generator: Sketch 43.1 (39012) - http://www.bohemiancoding.com/sketch -->
    <title>Artboard</title>
    <desc>Created with Sketch.</desc>
    <defs></defs>
    <g id="Page-1" stroke="none" stroke-width="1" fill="none" fill-rule="evenodd">
        <g id="Artboard" fill="#3275C3">
            <path d="M2.772,15.424 L2.868,15.424 L9.236,8.832 L13.268,8.832 L6.164,15.712 L13.876,24 L9.716,24 L2.868,16.128 L2.772,16.128 L2.772,24 L-0.236,24 L-0.236,-0.192 L2.772,-0.192 L2.772,15.424 Z M31.284,16.384 C31.284,17.5573392 31.0760021,18.6346618 30.66,19.616 C30.2439979,20.5973382 29.6680037,21.4453298 28.932,22.16 C28.1959963,22.8746702 27.3266717,23.4293314 26.324,23.824 C25.3213283,24.2186686 24.2440058,24.416 23.092,24.416 C21.9399942,24.416 20.8626717,24.2186686 19.86,23.824 C18.8573283,23.4293314 17.993337,22.8746702 17.268,22.16 C16.542663,21.4453298 15.9720021,20.5973382 15.556,19.616 C15.1399979,18.6346618 14.932,17.5573392 14.932,16.384 C14.932,15.2106608 15.1399979,14.1386715 15.556,13.168 C15.9720021,12.1973285 16.542663,11.3600035 17.268,10.656 C17.993337,9.95199648 18.8573283,9.40266864 19.86,9.008 C20.8626717,8.61333136 21.9399942,8.416 23.092,8.416 C24.2440058,8.416 25.3213283,8.61333136 26.324,9.008 C27.3266717,9.40266864 28.1959963,9.95199648 28.932,10.656 C29.6680037,11.3600035 30.2439979,12.1973285 30.66,13.168 C31.0760021,14.1386715 31.284,15.2106608 31.284,16.384 Z M28.148,16.384 C28.148,15.658663 28.0360011,14.9653366 27.812,14.304 C27.5879989,13.6426634 27.2626688,13.0613358 26.836,12.56 C26.4093312,12.0586642 25.8813365,11.6586682 25.252,11.36 C24.6226635,11.0613318 23.9026707,10.912 23.092,10.912 C22.2813293,10.912 21.5613365,11.0613318 20.932,11.36 C20.3026635,11.6586682 19.7746688,12.0586642 19.348,12.56 C18.9213312,13.0613358 18.5960011,13.6426634 18.372,14.304 C18.1479989,14.9653366 18.036,15.658663 18.036,16.384 C18.036,17.109337 18.1479989,17.8026634 18.372,18.464 C18.5960011,19.1253366 18.9213312,19.7119974 19.348,20.224 C19.7746688,20.7360026 20.3026635,21.1413318 20.932,21.44 C21.5613365,21.7386682 22.2813293,21.888 23.092,21.888 C23.9026707,21.888 24.6226635,21.7386682 25.252,21.44 C25.8813365,21.1413318 26.4093312,20.7360026 26.836,20.224 C27.2626688,19.7119974 27.5879989,19.1253366 27.812,18.464 C28.0360011,17.8026634 28.148,17.109337 28.148,16.384 Z M38.164,8.832 C38.2066669,9.21600192 38.2386666,9.6479976 38.26,10.128 C38.2813334,10.6080024 38.292,11.0079984 38.292,11.328 L38.388,11.328 C38.580001,10.9226646 38.8413317,10.5440018 39.172,10.192 C39.5026683,9.83999824 39.8813312,9.530668 40.308,9.264 C40.7346688,8.997332 41.2039974,8.78933408 41.716,8.64 C42.2280026,8.49066592 42.7613306,8.416 43.316,8.416 C44.2973382,8.416 45.1399965,8.58133168 45.844,8.912 C46.5480035,9.24266832 47.1346643,9.68533056 47.604,10.24 C48.0733357,10.7946694 48.4199989,11.4453296 48.644,12.192 C48.8680011,12.9386704 48.98,13.7386624 48.98,14.592 L48.98,24 L45.972,24 L45.972,15.584 C45.972,14.9653302 45.9240005,14.3786694 45.828,13.824 C45.7319995,13.2693306 45.5560013,12.7786688 45.3,12.352 C45.0439987,11.9253312 44.6920022,11.5840013 44.244,11.328 C43.7959978,11.0719987 43.2200035,10.944 42.516,10.944 C41.3213274,10.944 40.3453371,11.3973288 39.588,12.304 C38.8306629,13.2106712 38.452,14.4213258 38.452,15.936 L38.452,24 L35.444,24 L35.444,12.096 C35.444,11.6906646 35.4333334,11.1680032 35.412,10.528 C35.3906666,9.8879968 35.3586669,9.32266912 35.316,8.832 L38.164,8.832 Z M61.492,11.296 L57.46,11.296 L57.46,19.2 C57.46,20.1173379 57.630665,20.7733314 57.972,21.168 C58.313335,21.5626686 58.8573296,21.76 59.604,21.76 C59.8813347,21.76 60.1799984,21.7280003 60.5,21.664 C60.8200016,21.5999997 61.1079987,21.5040006 61.364,21.376 L61.46,23.84 C61.0973315,23.9680006 60.6973355,24.069333 60.26,24.144 C59.8226645,24.218667 59.3693357,24.256 58.9,24.256 C57.4706595,24.256 56.3773371,23.8613373 55.62,23.072 C54.8626629,22.2826627 54.484,21.0986746 54.484,19.52 L54.484,11.296 L51.572,11.296 L51.572,8.832 L54.484,8.832 L54.484,4.48 L57.46,4.48 L57.46,8.832 L61.492,8.832 L61.492,11.296 Z M74.036,14.176 C74.036,13.0453277 73.6946701,12.2080027 73.012,11.664 C72.3293299,11.1199973 71.4226723,10.848 70.292,10.848 C69.4386624,10.848 68.6333371,11.0133317 67.876,11.344 C67.1186629,11.6746683 66.4840026,12.0959974 65.972,12.608 L64.372,10.688 C65.1186704,9.98399648 66.0306613,9.42933536 67.108,9.024 C68.1853387,8.61866464 69.3426605,8.416 70.58,8.416 C71.6680054,8.416 72.611996,8.57066512 73.412,8.88 C74.212004,9.18933488 74.8679974,9.610664 75.38,10.144 C75.8920026,10.677336 76.2759987,11.306663 76.532,12.032 C76.7880013,12.757337 76.916,13.5359958 76.916,14.368 L76.916,20.992 C76.916,21.5040026 76.9319998,22.0426638 76.964,22.608 C76.9960002,23.1733362 77.0546662,23.6373315 77.14,24 L74.42,24 C74.2493325,23.274663 74.164,22.549337 74.164,21.824 L74.068,21.824 C73.5133306,22.6346707 72.8146709,23.2639978 71.972,23.712 C71.1293291,24.1600022 70.1320058,24.384 68.98,24.384 C68.3826637,24.384 67.7586699,24.3040008 67.108,24.144 C66.4573301,23.9839992 65.865336,23.7226685 65.332,23.36 C64.798664,22.9973315 64.3560018,22.5173363 64.004,21.92 C63.6519982,21.3226637 63.476,20.586671 63.476,19.712 C63.476,18.5599942 63.7853302,17.6480034 64.404,16.976 C65.0226698,16.3039966 65.8333283,15.7920018 66.836,15.44 C67.8386717,15.0879982 68.969327,14.8586672 70.228,14.752 C71.486673,14.6453328 72.7559936,14.592 74.036,14.592 L74.036,14.176 Z M73.3,16.768 C72.5533296,16.768 71.780004,16.7999997 70.98,16.864 C70.179996,16.9280003 69.4546699,17.055999 68.804,17.248 C68.1533301,17.440001 67.6146688,17.7279981 67.188,18.112 C66.7613312,18.4960019 66.548,19.0079968 66.548,19.648 C66.548,20.0960022 66.6386658,20.4693318 66.82,20.768 C67.0013342,21.0666682 67.2413318,21.311999 67.54,21.504 C67.8386682,21.696001 68.1693315,21.829333 68.532,21.904 C68.8946685,21.978667 69.2679981,22.016 69.652,22.016 C71.060007,22.016 72.1426629,21.5946709 72.9,20.752 C73.6573371,19.9093291 74.036,18.8480064 74.036,17.568 L74.036,16.768 L73.3,16.768 Z M85.012,15.424 L85.108,15.424 L91.476,8.832 L95.508,8.832 L88.404,15.712 L96.116,24 L91.956,24 L85.108,16.128 L85.012,16.128 L85.012,24 L82.004,24 L82.004,-0.192 L85.012,-0.192 L85.012,15.424 Z M106.228,11.296 L102.196,11.296 L102.196,19.2 C102.196,20.1173379 102.366665,20.7733314 102.708,21.168 C103.049335,21.5626686 103.59333,21.76 104.34,21.76 C104.617335,21.76 104.915998,21.7280003 105.236,21.664 C105.556002,21.5999997 105.843999,21.5040006 106.1,21.376 L106.196,23.84 C105.833332,23.9680006 105.433336,24.069333 104.996,24.144 C104.558664,24.218667 104.105336,24.256 103.636,24.256 C102.20666,24.256 101.113337,23.8613373 100.356,23.072 C99.5986629,22.2826627 99.22,21.0986746 99.22,19.52 L99.22,11.296 L96.308,11.296 L96.308,8.832 L99.22,8.832 L99.22,4.48 L102.196,4.48 L102.196,8.832 L106.228,8.832 L106.228,11.296 Z M119.924,8.704 C119.347997,8.704 118.841336,8.85866512 118.404,9.168 C117.966664,9.47733488 117.598668,9.87733088 117.3,10.368 C117.001332,10.8586691 116.777334,11.4026637 116.628,12 C116.478666,12.5973363 116.404,13.1839971 116.404,13.76 C116.404,14.0373347 116.436,14.3413317 116.5,14.672 C116.564,15.0026683 116.681332,15.3119986 116.852,15.6 C117.022668,15.8880014 117.257332,16.127999 117.556,16.32 C117.854668,16.512001 118.238664,16.608 118.708,16.608 C119.369337,16.608 119.923998,16.4426683 120.372,16.112 C120.820002,15.7813317 121.187999,15.3760024 121.476,14.896 C121.764001,14.4159976 121.971999,13.8933362 122.1,13.328 C122.228001,12.7626638 122.292,12.2453357 122.292,11.776 C122.292,11.3919981 122.254667,11.0186685 122.18,10.656 C122.105333,10.2933315 121.977334,9.96800144 121.796,9.68 C121.614666,9.39199856 121.374668,9.15733424 121.076,8.976 C120.777332,8.79466576 120.393336,8.704 119.924,8.704 Z M130.036,20.736 C128.777327,22.0586733 127.289342,23.0293302 125.572,23.648 C123.854658,24.2666698 122.00401,24.576 120.02,24.576 C118.185324,24.576 116.516008,24.2826696 115.012,23.696 C113.507992,23.1093304 112.222672,22.2933386 111.156,21.248 C110.089328,20.2026614 109.26267,18.9493406 108.676,17.488 C108.08933,16.0266594 107.796,14.4320086 107.796,12.704 C107.796,10.9973248 108.115997,9.41867392 108.756,7.968 C109.396003,6.51732608 110.270661,5.258672 111.38,4.192 C112.489339,3.125328 113.785326,2.28800304 115.268,1.68 C116.750674,1.07199696 118.334658,0.768 120.02,0.768 C121.470674,0.768 122.87866,0.9813312 124.244,1.408 C125.60934,1.8346688 126.819995,2.4746624 127.876,3.328 C128.932005,4.1813376 129.774664,5.2479936 130.404,6.528 C131.033336,7.8080064 131.348,9.31199136 131.348,11.04 C131.348,12.3200064 131.177335,13.4506618 130.836,14.432 C130.494665,15.4133382 130.036003,16.2346634 129.46,16.896 C128.883997,17.5573366 128.217337,18.0533317 127.46,18.384 C126.702663,18.7146683 125.908004,18.88 125.076,18.88 C124.179996,18.88 123.492002,18.6613355 123.012,18.224 C122.531998,17.7866645 122.292,17.2586698 122.292,16.64 L122.132,16.64 C122.003999,16.8746678 121.822668,17.125332 121.588,17.392 C121.353332,17.658668 121.065335,17.9039989 120.724,18.128 C120.382665,18.3520011 120.004002,18.5333326 119.588,18.672 C119.171998,18.8106674 118.708003,18.88 118.196,18.88 C116.745326,18.88 115.614671,18.3946715 114.804,17.424 C113.993329,16.4533285 113.588,15.2000077 113.588,13.664 C113.588,12.7679955 113.737332,11.882671 114.036,11.008 C114.334668,10.133329 114.761331,9.36000336 115.316,8.688 C115.870669,8.01599664 116.537329,7.47200208 117.316,7.056 C118.094671,6.63999792 118.963995,6.432 119.924,6.432 C120.734671,6.432 121.427997,6.60799824 122.004,6.96 C122.580003,7.31200176 122.963999,7.74399744 123.156,8.256 L123.22,8.256 L123.508,6.912 L125.94,6.912 L124.692,12.928 C124.628,13.2266682 124.558667,13.5999978 124.484,14.048 C124.409333,14.4960022 124.372,14.8799984 124.372,15.2 C124.372,15.5626685 124.446666,15.8933318 124.596,16.192 C124.745334,16.4906682 125.097331,16.64 125.652,16.64 C126.121336,16.64 126.553331,16.506668 126.948,16.24 C127.342669,15.973332 127.678665,15.6053357 127.956,15.136 C128.233335,14.6666643 128.451999,14.1013366 128.612,13.44 C128.772001,12.7786634 128.852,12.0640038 128.852,11.296 C128.852,9.95199328 128.633336,8.76800512 128.196,7.744 C127.758664,6.71999488 127.145337,5.8613368 126.356,5.168 C125.566663,4.4746632 124.628005,3.95200176 123.54,3.6 C122.451995,3.24799824 121.268006,3.072 119.988,3.072 C118.579993,3.072 117.300006,3.31733088 116.148,3.808 C114.995994,4.29866912 114.004004,4.98132896 113.172,5.856 C112.339996,6.73067104 111.700002,7.75999408 111.252,8.944 C110.803998,10.1280059 110.58,11.4026598 110.58,12.768 C110.58,14.2186739 110.819998,15.5306608 111.3,16.704 C111.780002,17.8773392 112.446662,18.8746626 113.3,19.696 C114.153338,20.5173374 115.171994,21.1519978 116.356,21.6 C117.540006,22.0480022 118.84666,22.272 120.276,22.272 C122.089342,22.272 123.651993,21.9893362 124.964,21.424 C126.276007,20.8586638 127.475995,20.0640051 128.564,19.04 L130.036,20.736 Z M147.028,21.6 C146.451997,22.5173379 145.668005,23.2159976 144.676,23.696 C143.683995,24.1760024 142.644005,24.416 141.556,24.416 C140.382661,24.416 139.326671,24.2080021 138.388,23.792 C137.449329,23.3759979 136.649337,22.805337 135.988,22.08 C135.326663,21.354663 134.814668,20.5013382 134.452,19.52 C134.089332,18.5386618 133.908,17.4933389 133.908,16.384 C133.908,15.2746611 134.089332,14.2346715 134.452,13.264 C134.814668,12.2933285 135.331997,11.445337 136.004,10.72 C136.676003,9.99466304 137.481329,9.42933536 138.42,9.024 C139.358671,8.61866464 140.393328,8.416 141.524,8.416 C142.76134,8.416 143.838662,8.67733072 144.756,9.2 C145.673338,9.72266928 146.398664,10.3573296 146.932,11.104 L146.996,11.104 L146.996,-0.192 L150.004,-0.192 L150.004,24 L147.092,24 L147.092,21.6 L147.028,21.6 Z M137.044,16.384 C137.044,17.0880035 137.150666,17.7706634 137.364,18.432 C137.577334,19.0933366 137.897331,19.6799974 138.324,20.192 C138.750669,20.7040026 139.27333,21.1146651 139.892,21.424 C140.51067,21.7333349 141.235996,21.888 142.068,21.888 C142.836004,21.888 143.534664,21.7386682 144.164,21.44 C144.793336,21.1413318 145.331998,20.7413358 145.78,20.24 C146.228002,19.7386642 146.574665,19.1573366 146.82,18.496 C147.065335,17.8346634 147.188,17.141337 147.188,16.416 C147.188,15.690663 147.065335,14.9973366 146.82,14.336 C146.574665,13.6746634 146.228002,13.0880026 145.78,12.576 C145.331998,12.0639974 144.793336,11.6586682 144.164,11.36 C143.534664,11.0613318 142.836004,10.912 142.068,10.912 C141.235996,10.912 140.51067,11.0613318 139.892,11.36 C139.27333,11.6586682 138.750669,12.0639974 138.324,12.576 C137.897331,13.0880026 137.577334,13.6746634 137.364,14.336 C137.150666,14.9973366 137.044,15.6799965 137.044,16.384 Z M158.292,24 L155.284,24 L155.284,8.832 L158.292,8.832 L158.292,24 Z M158.804,3.36 C158.804,3.91466944 158.606669,4.37333152 158.212,4.736 C157.817331,5.09866848 157.342669,5.28 156.788,5.28 C156.233331,5.28 155.764002,5.0933352 155.38,4.72 C154.995998,4.3466648 154.804,3.893336 154.804,3.36 C154.804,2.80533056 154.995998,2.3413352 155.38,1.968 C155.764002,1.5946648 156.233331,1.408 156.788,1.408 C157.342669,1.408 157.817331,1.5946648 158.212,1.968 C158.606669,2.3413352 158.804,2.80533056 158.804,3.36 Z M164.724,26.592 C165.385337,27.3386704 166.211995,27.9359978 167.204,28.384 C168.196005,28.8320022 169.214661,29.056 170.26,29.056 C171.262672,29.056 172.10533,28.9120014 172.788,28.624 C173.47067,28.3359986 174.019998,27.9413358 174.436,27.44 C174.852002,26.9386642 175.150666,26.3466701 175.332,25.664 C175.513334,24.9813299 175.604,24.2453373 175.604,23.456 L175.604,21.504 L175.54,21.504 C174.985331,22.3573376 174.228005,23.0079978 173.268,23.456 C172.307995,23.9040022 171.284005,24.128 170.196,24.128 C169.043994,24.128 167.993338,23.9253354 167.044,23.52 C166.094662,23.1146646 165.289337,22.5600035 164.628,21.856 C163.966663,21.1519965 163.454668,20.3253381 163.092,19.376 C162.729332,18.4266619 162.548,17.4080054 162.548,16.32 C162.548,15.2319946 162.729332,14.2080048 163.092,13.248 C163.454668,12.2879952 163.966663,11.4506702 164.628,10.736 C165.289337,10.0213298 166.089329,9.45600208 167.028,9.04 C167.966671,8.62399792 169.011994,8.416 170.164,8.416 C171.252005,8.416 172.291995,8.65066432 173.284,9.12 C174.276005,9.58933568 175.059997,10.3039952 175.636,11.264 L175.7,11.264 L175.7,8.832 L178.612,8.832 L178.612,23.232 C178.612,24.3413389 178.473335,25.4026616 178.196,26.416 C177.918665,27.4293384 177.449337,28.3253294 176.788,29.104 C176.126663,29.8826706 175.262672,30.5066643 174.196,30.976 C173.129328,31.4453357 171.806675,31.68 170.228,31.68 C168.905327,31.68 167.57734,31.4400024 166.244,30.96 C164.91066,30.4799976 163.764005,29.802671 162.804,28.928 L164.724,26.592 Z M165.652,16.256 C165.652,16.9600035 165.763999,17.6319968 165.988,18.272 C166.212001,18.9120032 166.542664,19.4773309 166.98,19.968 C167.417336,20.4586691 167.94533,20.8533318 168.564,21.152 C169.18267,21.4506682 169.886663,21.6 170.676,21.6 C171.444004,21.6 172.147997,21.4613347 172.788,21.184 C173.428003,20.9066653 173.971998,20.5280024 174.42,20.048 C174.868002,19.5679976 175.214665,19.0026699 175.46,18.352 C175.705335,17.7013301 175.828,17.0026704 175.828,16.256 C175.828,15.530663 175.705335,14.8480032 175.46,14.208 C175.214665,13.5679968 174.862669,13.0026691 174.404,12.512 C173.945331,12.0213309 173.401336,11.6320014 172.772,11.344 C172.142664,11.0559986 171.444004,10.912 170.676,10.912 C169.886663,10.912 169.18267,11.0559986 168.564,11.344 C167.94533,11.6320014 167.417336,12.0159976 166.98,12.496 C166.542664,12.9760024 166.212001,13.5413301 165.988,14.192 C165.763999,14.8426699 165.652,15.530663 165.652,16.256 Z M186.804,24 L183.796,24 L183.796,8.832 L186.804,8.832 L186.804,24 Z M187.316,3.36 C187.316,3.91466944 187.118669,4.37333152 186.724,4.736 C186.329331,5.09866848 185.854669,5.28 185.3,5.28 C184.745331,5.28 184.276002,5.0933352 183.892,4.72 C183.507998,4.3466648 183.316,3.893336 183.316,3.36 C183.316,2.80533056 183.507998,2.3413352 183.892,1.968 C184.276002,1.5946648 184.745331,1.408 185.3,1.408 C185.854669,1.408 186.329331,1.5946648 186.724,1.968 C187.118669,2.3413352 187.316,2.80533056 187.316,3.36 Z M199.476,11.296 L195.444,11.296 L195.444,19.2 C195.444,20.1173379 195.614665,20.7733314 195.956,21.168 C196.297335,21.5626686 196.84133,21.76 197.588,21.76 C197.865335,21.76 198.163998,21.7280003 198.484,21.664 C198.804002,21.5999997 199.091999,21.5040006 199.348,21.376 L199.444,23.84 C199.081332,23.9680006 198.681336,24.069333 198.244,24.144 C197.806664,24.218667 197.353336,24.256 196.884,24.256 C195.45466,24.256 194.361337,23.8613373 193.604,23.072 C192.846663,22.2826627 192.468,21.0986746 192.468,19.52 L192.468,11.296 L189.556,11.296 L189.556,8.832 L192.468,8.832 L192.468,4.48 L195.444,4.48 L195.444,8.832 L199.476,8.832 L199.476,11.296 Z M212.02,14.176 C212.02,13.0453277 211.67867,12.2080027 210.996,11.664 C210.31333,11.1199973 209.406672,10.848 208.276,10.848 C207.422662,10.848 206.617337,11.0133317 205.86,11.344 C205.102663,11.6746683 204.468003,12.0959974 203.956,12.608 L202.356,10.688 C203.10267,9.98399648 204.014661,9.42933536 205.092,9.024 C206.169339,8.61866464 207.32666,8.416 208.564,8.416 C209.652005,8.416 210.595996,8.57066512 211.396,8.88 C212.196004,9.18933488 212.851997,9.610664 213.364,10.144 C213.876003,10.677336 214.259999,11.306663 214.516,12.032 C214.772001,12.757337 214.9,13.5359958 214.9,14.368 L214.9,20.992 C214.9,21.5040026 214.916,22.0426638 214.948,22.608 C214.98,23.1733362 215.038666,23.6373315 215.124,24 L212.404,24 C212.233332,23.274663 212.148,22.549337 212.148,21.824 L212.052,21.824 C211.497331,22.6346707 210.798671,23.2639978 209.956,23.712 C209.113329,24.1600022 208.116006,24.384 206.964,24.384 C206.366664,24.384 205.74267,24.3040008 205.092,24.144 C204.44133,23.9839992 203.849336,23.7226685 203.316,23.36 C202.782664,22.9973315 202.340002,22.5173363 201.988,21.92 C201.635998,21.3226637 201.46,20.586671 201.46,19.712 C201.46,18.5599942 201.76933,17.6480034 202.388,16.976 C203.00667,16.3039966 203.817328,15.7920018 204.82,15.44 C205.822672,15.0879982 206.953327,14.8586672 208.212,14.752 C209.470673,14.6453328 210.739994,14.592 212.02,14.592 L212.02,14.176 Z M211.284,16.768 C210.53733,16.768 209.764004,16.7999997 208.964,16.864 C208.163996,16.9280003 207.43867,17.055999 206.788,17.248 C206.13733,17.440001 205.598669,17.7279981 205.172,18.112 C204.745331,18.4960019 204.532,19.0079968 204.532,19.648 C204.532,20.0960022 204.622666,20.4693318 204.804,20.768 C204.985334,21.0666682 205.225332,21.311999 205.524,21.504 C205.822668,21.696001 206.153332,21.829333 206.516,21.904 C206.878668,21.978667 207.251998,22.016 207.636,22.016 C209.044007,22.016 210.126663,21.5946709 210.884,20.752 C211.641337,19.9093291 212.02,18.8480064 212.02,17.568 L212.02,16.768 L211.284,16.768 Z M222.996,24 L219.988,24 L219.988,-0.192 L222.996,-0.192 L222.996,24 Z M235.38,24 L232.116,24 L225.94,8.832 L229.268,8.832 L233.716,20.768 L233.78,20.768 L238.26,8.832 L241.46,8.832 L235.38,24 Z M253.812,14.176 C253.812,13.0453277 253.47067,12.2080027 252.788,11.664 C252.10533,11.1199973 251.198672,10.848 250.068,10.848 C249.214662,10.848 248.409337,11.0133317 247.652,11.344 C246.894663,11.6746683 246.260003,12.0959974 245.748,12.608 L244.148,10.688 C244.89467,9.98399648 245.806661,9.42933536 246.884,9.024 C247.961339,8.61866464 249.11866,8.416 250.356,8.416 C251.444005,8.416 252.387996,8.57066512 253.188,8.88 C253.988004,9.18933488 254.643997,9.610664 255.156,10.144 C255.668003,10.677336 256.051999,11.306663 256.308,12.032 C256.564001,12.757337 256.692,13.5359958 256.692,14.368 L256.692,20.992 C256.692,21.5040026 256.708,22.0426638 256.74,22.608 C256.772,23.1733362 256.830666,23.6373315 256.916,24 L254.196,24 C254.025332,23.274663 253.94,22.549337 253.94,21.824 L253.844,21.824 C253.289331,22.6346707 252.590671,23.2639978 251.748,23.712 C250.905329,24.1600022 249.908006,24.384 248.756,24.384 C248.158664,24.384 247.53467,24.3040008 246.884,24.144 C246.23333,23.9839992 245.641336,23.7226685 245.108,23.36 C244.574664,22.9973315 244.132002,22.5173363 243.78,21.92 C243.427998,21.3226637 243.252,20.586671 243.252,19.712 C243.252,18.5599942 243.56133,17.6480034 244.18,16.976 C244.79867,16.3039966 245.609328,15.7920018 246.612,15.44 C247.614672,15.0879982 248.745327,14.8586672 250.004,14.752 C251.262673,14.6453328 252.531994,14.592 253.812,14.592 L253.812,14.176 Z M253.076,16.768 C252.32933,16.768 251.556004,16.7999997 250.756,16.864 C249.955996,16.9280003 249.23067,17.055999 248.58,17.248 C247.92933,17.440001 247.390669,17.7279981 246.964,18.112 C246.537331,18.4960019 246.324,19.0079968 246.324,19.648 C246.324,20.0960022 246.414666,20.4693318 246.596,20.768 C246.777334,21.0666682 247.017332,21.311999 247.316,21.504 C247.614668,21.696001 247.945332,21.829333 248.308,21.904 C248.670668,21.978667 249.043998,22.016 249.428,22.016 C250.836007,22.016 251.918663,21.5946709 252.676,20.752 C253.433337,19.9093291 253.812,18.8480064 253.812,17.568 L253.812,16.768 L253.076,16.768 Z M261.716,12.096 C261.716,11.6906646 261.705333,11.1680032 261.684,10.528 C261.662667,9.8879968 261.630667,9.32266912 261.588,8.832 L264.436,8.832 C264.478667,9.21600192 264.510667,9.65866416 264.532,10.16 C264.553333,10.6613358 264.564,11.0719984 264.564,11.392 L264.66,11.392 C265.086669,10.4959955 265.710663,9.77600272 266.532,9.232 C267.353337,8.68799728 268.275995,8.416 269.3,8.416 C269.769336,8.416 270.163998,8.45866624 270.484,8.544 L270.356,11.328 C269.929331,11.2213328 269.470669,11.168 268.98,11.168 C268.254663,11.168 267.625336,11.301332 267.092,11.568 C266.558664,11.834668 266.116002,12.1919978 265.764,12.64 C265.411998,13.0880022 265.150668,13.6053304 264.98,14.192 C264.809332,14.7786696 264.724,15.3919968 264.724,16.032 L264.724,24 L261.716,24 L261.716,12.096 Z M284.82,21.6 C284.243997,22.5173379 283.460005,23.2159976 282.468,23.696 C281.475995,24.1760024 280.436005,24.416 279.348,24.416 C278.174661,24.416 277.118671,24.2080021 276.18,23.792 C275.241329,23.3759979 274.441337,22.805337 273.78,22.08 C273.118663,21.354663 272.606668,20.5013382 272.244,19.52 C271.881332,18.5386618 271.7,17.4933389 271.7,16.384 C271.7,15.2746611 271.881332,14.2346715 272.244,13.264 C272.606668,12.2933285 273.123997,11.445337 273.796,10.72 C274.468003,9.99466304 275.273329,9.42933536 276.212,9.024 C277.150671,8.61866464 278.185328,8.416 279.316,8.416 C280.55334,8.416 281.630662,8.67733072 282.548,9.2 C283.465338,9.72266928 284.190664,10.3573296 284.724,11.104 L284.788,11.104 L284.788,-0.192 L287.796,-0.192 L287.796,24 L284.884,24 L284.884,21.6 L284.82,21.6 Z M274.836,16.384 C274.836,17.0880035 274.942666,17.7706634 275.156,18.432 C275.369334,19.0933366 275.689331,19.6799974 276.116,20.192 C276.542669,20.7040026 277.06533,21.1146651 277.684,21.424 C278.30267,21.7333349 279.027996,21.888 279.86,21.888 C280.628004,21.888 281.326664,21.7386682 281.956,21.44 C282.585336,21.1413318 283.123998,20.7413358 283.572,20.24 C284.020002,19.7386642 284.366665,19.1573366 284.612,18.496 C284.857335,17.8346634 284.98,17.141337 284.98,16.416 C284.98,15.690663 284.857335,14.9973366 284.612,14.336 C284.366665,13.6746634 284.020002,13.0880026 283.572,12.576 C283.123998,12.0639974 282.585336,11.6586682 281.956,11.36 C281.326664,11.0613318 280.628004,10.912 279.86,10.912 C279.027996,10.912 278.30267,11.0613318 277.684,11.36 C277.06533,11.6586682 276.542669,12.0639974 276.116,12.576 C275.689331,13.0880026 275.369334,13.6746634 275.156,14.336 C274.942666,14.9973366 274.836,15.6799965 274.836,16.384 Z M296.052,31.68 L293.044,31.68 L293.044,8.832 L295.988,8.832 L295.988,11.2 L296.084,11.2 C296.574669,10.3893293 297.294662,9.72266928 298.244,9.2 C299.193338,8.67733072 300.297327,8.416 301.556,8.416 C302.686672,8.416 303.715995,8.61866464 304.644,9.024 C305.572005,9.42933536 306.371997,9.99466304 307.044,10.72 C307.716003,11.445337 308.233332,12.2933285 308.596,13.264 C308.958668,14.2346715 309.14,15.2746611 309.14,16.384 C309.14,17.4933389 308.958668,18.5386618 308.596,19.52 C308.233332,20.5013382 307.721337,21.354663 307.06,22.08 C306.398663,22.805337 305.598671,23.3759979 304.66,23.792 C303.721329,24.2080021 302.665339,24.416 301.492,24.416 C300.403995,24.416 299.380005,24.1813357 298.42,23.712 C297.459995,23.2426643 296.702669,22.5813376 296.148,21.728 L296.052,21.728 L296.052,31.68 Z M306.036,16.384 C306.036,15.6799965 305.929334,14.9973366 305.716,14.336 C305.502666,13.6746634 305.182669,13.0880026 304.756,12.576 C304.329331,12.0639974 303.801336,11.6586682 303.172,11.36 C302.542664,11.0613318 301.812004,10.912 300.98,10.912 C300.211996,10.912 299.513336,11.0613318 298.884,11.36 C298.254664,11.6586682 297.716002,12.0639974 297.268,12.576 C296.819998,13.0880026 296.473335,13.6746634 296.228,14.336 C295.982665,14.9973366 295.86,15.690663 295.86,16.416 C295.86,17.141337 295.982665,17.8346634 296.228,18.496 C296.473335,19.1573366 296.819998,19.7386642 297.268,20.24 C297.716002,20.7413358 298.254664,21.1413318 298.884,21.44 C299.513336,21.7386682 300.211996,21.888 300.98,21.888 C301.812004,21.888 302.542664,21.7333349 303.172,21.424 C303.801336,21.1146651 304.329331,20.7040026 304.756,20.192 C305.182669,19.6799974 305.502666,19.0933366 305.716,18.432 C305.929334,17.7706634 306.036,17.0880035 306.036,16.384 Z M316.404,24 L313.396,24 L313.396,-0.192 L316.404,-0.192 L316.404,24 Z M331.092,14.176 C331.092,13.0453277 330.75067,12.2080027 330.068,11.664 C329.38533,11.1199973 328.478672,10.848 327.348,10.848 C326.494662,10.848 325.689337,11.0133317 324.932,11.344 C324.174663,11.6746683 323.540003,12.0959974 323.028,12.608 L321.428,10.688 C322.17467,9.98399648 323.086661,9.42933536 324.164,9.024 C325.241339,8.61866464 326.39866,8.416 327.636,8.416 C328.724005,8.416 329.667996,8.57066512 330.468,8.88 C331.268004,9.18933488 331.923997,9.610664 332.436,10.144 C332.948003,10.677336 333.331999,11.306663 333.588,12.032 C333.844001,12.757337 333.972,13.5359958 333.972,14.368 L333.972,20.992 C333.972,21.5040026 333.988,22.0426638 334.02,22.608 C334.052,23.1733362 334.110666,23.6373315 334.196,24 L331.476,24 C331.305332,23.274663 331.22,22.549337 331.22,21.824 L331.124,21.824 C330.569331,22.6346707 329.870671,23.2639978 329.028,23.712 C328.185329,24.1600022 327.188006,24.384 326.036,24.384 C325.438664,24.384 324.81467,24.3040008 324.164,24.144 C323.51333,23.9839992 322.921336,23.7226685 322.388,23.36 C321.854664,22.9973315 321.412002,22.5173363 321.06,21.92 C320.707998,21.3226637 320.532,20.586671 320.532,19.712 C320.532,18.5599942 320.84133,17.6480034 321.46,16.976 C322.07867,16.3039966 322.889328,15.7920018 323.892,15.44 C324.894672,15.0879982 326.025327,14.8586672 327.284,14.752 C328.542673,14.6453328 329.811994,14.592 331.092,14.592 L331.092,14.176 Z M330.356,16.768 C329.60933,16.768 328.836004,16.7999997 328.036,16.864 C327.235996,16.9280003 326.51067,17.055999 325.86,17.248 C325.20933,17.440001 324.670669,17.7279981 324.244,18.112 C323.817331,18.4960019 323.604,19.0079968 323.604,19.648 C323.604,20.0960022 323.694666,20.4693318 323.876,20.768 C324.057334,21.0666682 324.297332,21.311999 324.596,21.504 C324.894668,21.696001 325.225332,21.829333 325.588,21.904 C325.950668,21.978667 326.323998,22.016 326.708,22.016 C328.116007,22.016 329.198663,21.5946709 329.956,20.752 C330.713337,19.9093291 331.092,18.8480064 331.092,17.568 L331.092,16.768 L330.356,16.768 Z M341.716,8.832 C341.758667,9.21600192 341.790667,9.6479976 341.812,10.128 C341.833333,10.6080024 341.844,11.0079984 341.844,11.328 L341.94,11.328 C342.132001,10.9226646 342.393332,10.5440018 342.724,10.192 C343.054668,9.83999824 343.433331,9.530668 343.86,9.264 C344.286669,8.997332 344.755997,8.78933408 345.268,8.64 C345.780003,8.49066592 346.313331,8.416 346.868,8.416 C347.849338,8.416 348.691996,8.58133168 349.396,8.912 C350.100004,9.24266832 350.686664,9.68533056 351.156,10.24 C351.625336,10.7946694 351.971999,11.4453296 352.196,12.192 C352.420001,12.9386704 352.532,13.7386624 352.532,14.592 L352.532,24 L349.524,24 L349.524,15.584 C349.524,14.9653302 349.476,14.3786694 349.38,13.824 C349.284,13.2693306 349.108001,12.7786688 348.852,12.352 C348.595999,11.9253312 348.244002,11.5840013 347.796,11.328 C347.347998,11.0719987 346.772004,10.944 346.068,10.944 C344.873327,10.944 343.897337,11.3973288 343.14,12.304 C342.382663,13.2106712 342.004,14.4213258 342.004,15.936 L342.004,24 L338.996,24 L338.996,12.096 C338.996,11.6906646 338.985333,11.1680032 338.964,10.528 C338.942667,9.8879968 338.910667,9.32266912 338.868,8.832 L341.716,8.832 Z M361.332,22.08 C361.332,22.6346694 361.129335,23.1253312 360.724,23.552 C360.318665,23.9786688 359.80667,24.192 359.188,24.192 C358.590664,24.192 358.084002,23.9840021 357.668,23.568 C357.251998,23.1519979 357.044,22.6666694 357.044,22.112 C357.044,21.5359971 357.246665,21.0400021 357.652,20.624 C358.057335,20.2079979 358.56933,20 359.188,20 C359.80667,20 360.318665,20.2026646 360.724,20.608 C361.129335,21.0133354 361.332,21.5039971 361.332,22.08 Z M374.132,12.672 C373.790665,12.1173306 373.31067,11.6640018 372.692,11.312 C372.07333,10.9599982 371.380004,10.784 370.612,10.784 C370.270665,10.784 369.929335,10.821333 369.588,10.896 C369.246665,10.970667 368.942668,11.0879992 368.676,11.248 C368.409332,11.4080008 368.196001,11.6106654 368.036,11.856 C367.875999,12.1013346 367.796,12.4053315 367.796,12.768 C367.796,13.4080032 368.083997,13.8826651 368.66,14.192 C369.236003,14.5013349 370.099994,14.7839987 371.252,15.04 C371.977337,15.2106675 372.64933,15.4133322 373.268,15.648 C373.88667,15.8826678 374.425331,16.1759982 374.884,16.528 C375.342669,16.8800018 375.699999,17.3013309 375.956,17.792 C376.212001,18.2826691 376.34,18.8586634 376.34,19.52 C376.34,20.4160045 376.169335,21.1733302 375.828,21.792 C375.486665,22.4106698 375.033336,22.9173314 374.468,23.312 C373.902664,23.7066686 373.257337,23.9893325 372.532,24.16 C371.806663,24.3306675 371.060004,24.416 370.292,24.416 C369.139994,24.416 368.014672,24.1920022 366.916,23.744 C365.817328,23.2959978 364.905337,22.6133379 364.18,21.696 L366.324,19.872 C366.729335,20.4693363 367.28933,20.9706646 368.004,21.376 C368.71867,21.7813354 369.502662,21.984 370.356,21.984 C370.740002,21.984 371.107998,21.946667 371.46,21.872 C371.812002,21.797333 372.131999,21.6746675 372.42,21.504 C372.708001,21.3333325 372.937332,21.1093347 373.108,20.832 C373.278668,20.5546653 373.364,20.2026688 373.364,19.776 C373.364,19.0719965 373.028003,18.549335 372.356,18.208 C371.683997,17.866665 370.69734,17.5466682 369.396,17.248 C368.883997,17.1199994 368.366669,16.9653342 367.844,16.784 C367.321331,16.6026658 366.846669,16.3520016 366.42,16.032 C365.993331,15.7119984 365.646668,15.3120024 365.38,14.832 C365.113332,14.3519976 364.98,13.7600035 364.98,13.056 C364.98,12.2453293 365.145332,11.5466696 365.476,10.96 C365.806668,10.3733304 366.238664,9.8933352 366.772,9.52 C367.305336,9.1466648 367.91333,8.86933424 368.596,8.688 C369.27867,8.50666576 369.982663,8.416 370.708,8.416 C371.796005,8.416 372.846662,8.6293312 373.86,9.056 C374.873338,9.4826688 375.657331,10.1013293 376.212,10.912 L374.132,12.672 Z M391.252,15.072 C391.230667,14.4746637 391.129334,13.9146693 390.948,13.392 C390.766666,12.8693307 390.500002,12.4160019 390.148,12.032 C389.795998,11.6479981 389.358669,11.3440011 388.836,11.12 C388.313331,10.8959989 387.700004,10.784 386.996,10.784 C386.355997,10.784 385.753336,10.8959989 385.188,11.12 C384.622664,11.3440011 384.132002,11.6479981 383.716,12.032 C383.299998,12.4160019 382.958668,12.8693307 382.692,13.392 C382.425332,13.9146693 382.270667,14.4746637 382.228,15.072 L391.252,15.072 Z M394.292,16.288 L394.292,16.8 C394.292,16.9706675 394.281333,17.1413325 394.26,17.312 L382.228,17.312 C382.249333,17.9520032 382.393332,18.5546638 382.66,19.12 C382.926668,19.6853362 383.283998,20.1759979 383.732,20.592 C384.180002,21.0080021 384.69733,21.3333322 385.284,21.568 C385.87067,21.8026678 386.494663,21.92 387.156,21.92 C388.180005,21.92 389.06533,21.6960022 389.812,21.248 C390.55867,20.7999978 391.145331,20.2560032 391.572,19.616 L393.684,21.312 C392.873329,22.378672 391.918672,23.1626642 390.82,23.664 C389.721328,24.1653358 388.500007,24.416 387.156,24.416 C386.003994,24.416 384.937338,24.2240019 383.956,23.84 C382.974662,23.4559981 382.132004,22.9173368 381.428,22.224 C380.723996,21.5306632 380.169335,20.6933382 379.764,19.712 C379.358665,18.7306618 379.156,17.6426726 379.156,16.448 C379.156,15.2746608 379.353331,14.192005 379.748,13.2 C380.142669,12.207995 380.691996,11.3600035 381.396,10.656 C382.100004,9.95199648 382.931995,9.40266864 383.892,9.008 C384.852005,8.61333136 385.886661,8.416 386.996,8.416 C388.105339,8.416 389.113329,8.59733152 390.02,8.96 C390.926671,9.32266848 391.694664,9.84532992 392.324,10.528 C392.953336,11.2106701 393.438665,12.0373285 393.78,13.008 C394.121335,13.9786715 394.292,15.0719939 394.292,16.288 Z" id="kontakt@digitalvardp"></path>
        </g>
    </g>
</svg>