<?xml version="1.0" encoding="UTF-8"?>
<svg width="800px" height="250px" viewBox="0 0 800 250" version="1.1" xmlns="http://www.w3.org/2000/svg" xmlns:xlink="http://www.w3.org/1999/xlink">
    <!-- Generator: Sketch 46.2 (44496) - http://www.bohemiancoding.com/sketch -->
    <title>Logotyp</title>
    <desc>Created with Sketch.</desc>
    <defs></defs>
    <g id="Page-1" stroke="none" stroke-width="1" fill="none" fill-rule="evenodd">
        <g id="Logotyp" fill="#FFFFFF">
            <g id="Group" transform="translate(77.000000, 81.000000)">
                <g id="Din-vårdplan-UF-+-Oval-1" transform="translate(0.482630, 0.805017)">
                    <path d="M51.1968561,35.1857536 L51.1968561,16.9329135 L35.1019191,16.9329135 L35.1019191,35.1857536 L16.849079,35.1857536 L16.849079,51.2806906 L35.1019191,51.2806906 L35.1019191,69.5335308 L51.1968561,69.5335308 L51.1968561,51.2806906 L69.4496962,51.2806906 L69.4496962,35.1857536 L51.1968561,35.1857536 Z M43.1493876,86.2186728 C19.4091787,86.2186728 0.163936956,66.973431 0.163936956,43.2332221 C0.163936956,19.4930133 19.4091787,0.24777149 43.1493876,0.24777149 C66.8895965,0.24777149 86.1348382,19.4930133 86.1348382,43.2332221 C86.1348382,66.973431 66.8895965,86.2186728 43.1493876,86.2186728 Z" id="Oval-1"></path>
                </g>
                <path d="M152.774176,39.3736633 C152.774176,42.5431032 152.186305,45.2779821 151.010545,47.5783819 C149.834785,49.8787818 148.284168,51.7701934 146.358648,53.2526733 C144.433129,54.7351533 142.260561,55.8256968 139.840881,56.5243368 C137.421201,57.2229768 134.967478,57.5722915 132.479638,57.5722915 L118.984027,57.5722915 L118.984027,21.3795141 L132.070681,21.3795141 C134.62668,21.3795141 137.148562,21.6777096 139.636402,22.2741096 C142.124242,22.8705096 144.339409,23.8588147 146.281969,25.2390547 C148.224529,26.6192946 149.792185,28.4681068 150.984985,30.7855467 C152.177785,33.1029866 152.774176,35.9656635 152.774176,39.3736633 L152.774176,39.3736633 Z M143.674862,39.3736633 C143.674862,37.3288634 143.342587,35.6334089 142.678027,34.287249 C142.013467,32.9410891 141.1274,31.8675852 140.0198,31.0667053 C138.9122,30.2658253 137.651259,29.6949939 136.23694,29.3541939 C134.82262,29.0133939 133.365721,28.8429965 131.866202,28.8429965 L127.521023,28.8429965 L127.521023,50.0065697 L131.661723,50.0065697 C133.229403,50.0065697 134.73742,49.8276524 136.18582,49.4698124 C137.63422,49.1119724 138.9122,48.5241013 140.0198,47.7061813 C141.1274,46.8882613 142.013467,45.7977177 142.678027,44.4345178 C143.342587,43.0713179 143.674862,41.3843832 143.674862,39.3736633 L143.674862,39.3736633 Z M167.189943,23.986621 C167.189943,24.6341409 167.062145,25.2390518 166.806545,25.8013718 C166.550945,26.3636918 166.21015,26.8493245 165.78415,27.2582845 C165.35815,27.6672444 164.846958,27.9909996 164.250558,28.2295596 C163.654158,28.4681196 163.032208,28.5873978 162.384688,28.5873978 C161.021488,28.5873978 159.879825,28.1358446 158.959665,27.2327246 C158.039505,26.3296046 157.579432,25.2475809 157.579432,23.986621 C157.579432,23.373181 157.69871,22.7853098 157.93727,22.2229899 C158.17583,21.6606699 158.516625,21.1750372 158.959665,20.7660772 C159.402705,20.3571172 159.913897,20.0248422 160.493257,19.7692422 C161.072617,19.5136423 161.703088,19.3858442 162.384688,19.3858442 C163.032208,19.3858442 163.654158,19.5051224 164.250558,19.7436824 C164.846958,19.9822424 165.35815,20.3059975 165.78415,20.7149575 C166.21015,21.1239175 166.550945,21.6095502 166.806545,22.1718701 C167.062145,22.7341901 167.189943,23.339101 167.189943,23.986621 L167.189943,23.986621 Z M158.192869,57.5722915 L158.192869,32.11466 L166.576506,32.11466 L166.576506,57.5722915 L158.192869,57.5722915 Z M189.938229,57.5722915 L189.938229,43.6677217 C189.938229,42.9520417 189.878589,42.270452 189.759309,41.622932 C189.640029,40.975412 189.444072,40.4045806 189.171432,39.9104206 C188.898792,39.4162607 188.515398,39.0243466 188.021238,38.7346666 C187.527078,38.4449866 186.905128,38.3001488 186.155368,38.3001488 C185.405608,38.3001488 184.749578,38.4449866 184.187258,38.7346666 C183.624938,39.0243466 183.156345,39.4247805 182.781465,39.9359805 C182.406585,40.4471805 182.125429,41.0350516 181.937989,41.6996116 C181.750549,42.3641716 181.65683,43.0542812 181.65683,43.7699612 L181.65683,57.5722915 L173.222073,57.5722915 L173.222073,32.11466 L181.350112,32.11466 L181.350112,35.6419222 L181.452351,35.6419222 C181.759071,35.0966422 182.159505,34.5598903 182.653665,34.0316503 C183.147825,33.5034103 183.727177,33.0518571 184.391737,32.6769771 C185.056297,32.3020971 185.780486,31.9953818 186.564326,31.7568218 C187.348166,31.5182618 188.183113,31.3989836 189.069193,31.3989836 C190.773193,31.3989836 192.221571,31.705699 193.414371,32.3191389 C194.607171,32.9325789 195.569916,33.724927 196.302636,34.6962069 C197.035356,35.6674869 197.563588,36.7835901 197.887348,38.04455 C198.211108,39.30551 198.372986,40.566451 198.372986,41.827411 L198.372986,57.5722915 L189.938229,57.5722915 Z M251.741997,39.3736633 C251.741997,42.5431032 251.154126,45.2779821 249.978366,47.5783819 C248.802606,49.8787818 247.251989,51.7701934 245.326469,53.2526733 C243.400949,54.7351533 241.228382,55.8256968 238.808702,56.5243368 C236.389022,57.2229768 233.935299,57.5722915 231.447459,57.5722915 L217.951847,57.5722915 L217.951847,21.3795141 L231.038501,21.3795141 C233.594501,21.3795141 236.116383,21.6777096 238.604223,22.2741096 C241.092063,22.8705096 243.30723,23.8588147 245.24979,25.2390547 C247.192349,26.6192946 248.760006,28.4681068 249.952806,30.7855467 C251.145606,33.1029866 251.741997,35.9656635 251.741997,39.3736633 L251.741997,39.3736633 Z M242.642683,39.3736633 C242.642683,37.3288634 242.310408,35.6334089 241.645848,34.287249 C240.981288,32.9410891 240.095221,31.8675852 238.987621,31.0667053 C237.880021,30.2658253 236.61908,29.6949939 235.20476,29.3541939 C233.79044,29.0133939 232.333542,28.8429965 230.834022,28.8429965 L226.488844,28.8429965 L226.488844,50.0065697 L230.629543,50.0065697 C232.197223,50.0065697 233.705241,49.8276524 235.15364,49.4698124 C236.60204,49.1119724 237.880021,48.5241013 238.987621,47.7061813 C240.095221,46.8882613 240.981288,45.7977177 241.645848,44.4345178 C242.310408,43.0713179 242.642683,41.3843832 242.642683,39.3736633 L242.642683,39.3736633 Z M266.157764,23.986621 C266.157764,24.6341409 266.029966,25.2390518 265.774366,25.8013718 C265.518766,26.3636918 265.177971,26.8493245 264.751971,27.2582845 C264.325971,27.6672444 263.814779,27.9909996 263.218379,28.2295596 C262.621979,28.4681196 262.000028,28.5873978 261.352508,28.5873978 C259.989308,28.5873978 258.847646,28.1358446 257.927486,27.2327246 C257.007326,26.3296046 256.547253,25.2475809 256.547253,23.986621 C256.547253,23.373181 256.666531,22.7853098 256.905091,22.2229899 C257.143651,21.6606699 257.484446,21.1750372 257.927486,20.7660772 C258.370526,20.3571172 258.881718,20.0248422 259.461078,19.7692422 C260.040438,19.5136423 260.670908,19.3858442 261.352508,19.3858442 C262.000028,19.3858442 262.621979,19.5051224 263.218379,19.7436824 C263.814779,19.9822424 264.325971,20.3059975 264.751971,20.7149575 C265.177971,21.1239175 265.518766,21.6095502 265.774366,22.1718701 C266.029966,22.7341901 266.157764,23.339101 266.157764,23.986621 L266.157764,23.986621 Z M257.160689,57.5722915 L257.160689,32.11466 L265.544327,32.11466 L265.544327,57.5722915 L257.160689,57.5722915 Z M299.181117,55.1696636 C299.181117,57.6575035 298.823283,59.821551 298.107603,61.6618709 C297.391923,63.5021908 296.386578,65.0272479 295.091538,66.2370878 C293.796498,67.4469278 292.220322,68.3500342 290.362962,68.9464341 C288.505602,69.5428341 286.452313,69.8410296 284.203033,69.8410296 C281.953753,69.8410296 279.644868,69.5002348 277.276308,68.8186348 C274.907748,68.1370348 272.854459,67.1487297 271.116379,65.8536897 L275.308198,59.8726799 C276.535078,60.9632399 277.889737,61.7726277 279.372217,62.3008677 C280.854697,62.8291076 282.311595,63.0932237 283.742955,63.0932237 C286.196715,63.0932237 288.011448,62.4457134 289.187208,61.1506735 C290.362968,59.8556335 290.950839,58.1346194 290.950839,55.9875795 L290.950839,54.4539873 L290.79748,54.4539873 C290.01364,55.4763872 288.957176,56.2942949 287.628056,56.9077349 C286.298936,57.5211749 284.782399,57.8278902 283.078399,57.8278902 C281.135839,57.8278902 279.414825,57.4785755 277.915305,56.7799355 C276.415785,56.0812956 275.146324,55.1355898 274.106884,53.9427898 C273.067444,52.7499899 272.275096,51.3612508 271.729816,49.7765309 C271.184536,48.1918109 270.9119,46.5133962 270.9119,44.7412363 C270.9119,42.9690763 271.184536,41.2821417 271.729816,39.6803818 C272.275096,38.0786219 273.067444,36.6643231 274.106884,35.4374432 C275.146324,34.2105633 276.415785,33.230778 277.915305,32.498058 C279.414825,31.7653381 281.118799,31.3989836 283.027279,31.3989836 C284.629039,31.3989836 286.162616,31.7227387 287.628056,32.3702587 C289.093496,33.0177786 290.269238,34.0231235 291.155318,35.3863235 L291.257557,35.3863235 L291.257557,32.11466 L299.181117,32.11466 L299.181117,55.1696636 Z M291.206438,44.6901165 C291.206438,43.8381166 291.0616,43.0202089 290.77192,42.2363689 C290.48224,41.4525289 290.064766,40.7624193 289.519486,40.1660193 C288.974206,39.5696194 288.326696,39.1010264 287.576936,38.7602264 C286.827176,38.4194265 285.975189,38.249029 285.020949,38.249029 C284.066709,38.249029 283.223242,38.4194265 282.490522,38.7602264 C281.757802,39.1010264 281.135851,39.5610995 280.624651,40.1404595 C280.113451,40.7198194 279.721537,41.4014092 279.448897,42.1852492 C279.176257,42.9690891 279.039939,43.8040366 279.039939,44.6901165 C279.039939,45.5421165 279.176257,46.3600242 279.448897,47.1438641 C279.721537,47.9277041 280.113451,48.6178137 280.624651,49.2142137 C281.135851,49.8106137 281.757802,50.2877265 282.490522,50.6455665 C283.223242,51.0034065 284.066709,51.1823238 285.020949,51.1823238 C285.975189,51.1823238 286.835696,51.0034065 287.602496,50.6455665 C288.369296,50.2877265 289.016806,49.8191335 289.545046,49.2397736 C290.073286,48.6604136 290.48224,47.9788238 290.77192,47.1949839 C291.0616,46.4111439 291.206438,45.5761965 291.206438,44.6901165 L291.206438,44.6901165 Z M314.925998,23.986621 C314.925998,24.6341409 314.7982,25.2390518 314.5426,25.8013718 C314.287,26.3636918 313.946205,26.8493245 313.520205,27.2582845 C313.094205,27.6672444 312.583013,27.9909996 311.986613,28.2295596 C311.390213,28.4681196 310.768262,28.5873978 310.120742,28.5873978 C308.757542,28.5873978 307.615879,28.1358446 306.69572,27.2327246 C305.77556,26.3296046 305.315486,25.2475809 305.315486,23.986621 C305.315486,23.373181 305.434765,22.7853098 305.673325,22.2229899 C305.911885,21.6606699 306.25268,21.1750372 306.69572,20.7660772 C307.138759,20.3571172 307.649952,20.0248422 308.229312,19.7692422 C308.808672,19.5136423 309.439142,19.3858442 310.120742,19.3858442 C310.768262,19.3858442 311.390213,19.5051224 311.986613,19.7436824 C312.583013,19.9822424 313.094205,20.3059975 313.520205,20.7149575 C313.946205,21.1239175 314.287,21.6095502 314.5426,22.1718701 C314.7982,22.7341901 314.925998,23.339101 314.925998,23.986621 L314.925998,23.986621 Z M305.928923,57.5722915 L305.928923,32.11466 L314.312561,32.11466 L314.312561,57.5722915 L305.928923,57.5722915 Z M330.057442,38.4023882 L330.057442,48.1151392 C330.057442,49.3079392 330.287478,50.2025257 330.747558,50.7989257 C331.207638,51.3953257 332.034066,51.6935212 333.226866,51.6935212 C333.635826,51.6935212 334.070339,51.6594417 334.530419,51.5912817 C334.990499,51.5231217 335.373893,51.4208832 335.680613,51.2845632 L335.782853,57.4189323 C335.203493,57.6234123 334.470784,57.8023296 333.584704,57.9556896 C332.698624,58.1090496 331.812557,58.1857284 330.926477,58.1857284 C329.222477,58.1857284 327.791139,57.9727316 326.632419,57.5467317 C325.473699,57.1207317 324.545033,56.5073009 323.846393,55.7064209 C323.147753,54.905541 322.645081,53.9513153 322.338361,52.8437154 C322.031641,51.7361154 321.878283,50.500734 321.878283,49.1375341 L321.878283,38.4023882 L317.788704,38.4023882 L317.788704,32.11466 L321.827163,32.11466 L321.827163,25.4179737 L330.057442,25.4179737 L330.057442,32.11466 L336.038451,32.11466 L336.038451,38.4023882 L330.057442,38.4023882 Z M355.003876,46.4793075 L353.930361,46.4793075 C353.010201,46.4793075 352.081535,46.5219069 351.144335,46.6071068 C350.207135,46.6923068 349.372188,46.8541844 348.639468,47.0927444 C347.906748,47.3313044 347.301837,47.6806191 346.824717,48.1406991 C346.347597,48.6007791 346.109041,49.20569 346.109041,49.95545 C346.109041,50.4325699 346.219799,50.8415238 346.441319,51.1823238 C346.662839,51.5231237 346.943995,51.7957596 347.284795,52.0002396 C347.625595,52.2047196 348.017509,52.3495574 348.460549,52.4347574 C348.903589,52.5199574 349.329582,52.5625568 349.738542,52.5625568 C351.442542,52.5625568 352.746083,52.0939639 353.649203,51.1567639 C354.552323,50.2195639 355.003876,48.950103 355.003876,47.3483431 L355.003876,46.4793075 Z M339.616833,35.5908024 C341.116353,34.1594425 342.862927,33.0859386 344.856607,32.3702587 C346.850287,31.6545787 348.886536,31.2967441 350.965416,31.2967441 C353.112456,31.2967441 354.927189,31.5608601 356.409669,32.0891001 C357.892149,32.6173401 359.093451,33.4352478 360.013611,34.5428477 C360.93377,35.6504477 361.60684,37.0477066 362.03284,38.7346666 C362.45884,40.4216265 362.671837,42.4237964 362.671837,44.7412363 L362.671837,57.5722915 L355.003876,57.5722915 L355.003876,54.8629452 L354.850517,54.8629452 C354.202997,55.9194251 353.223211,56.7373328 351.911131,57.3166928 C350.599051,57.8960528 349.176233,58.1857284 347.642633,58.1857284 C346.620233,58.1857284 345.563769,58.0494105 344.473209,57.7767705 C343.382649,57.5041305 342.385824,57.0610972 341.482704,56.4476572 C340.579584,55.8342172 339.838355,55.0163095 339.258995,53.9939096 C338.679635,52.9715096 338.38996,51.7105686 338.38996,50.2110487 C338.38996,48.3707287 338.892632,46.8882711 339.897992,45.7636311 C340.903352,44.6389912 342.198372,43.7699642 343.783092,43.1565243 C345.367812,42.5430843 347.131426,42.1341304 349.073986,41.9296504 C351.016546,41.7251705 352.907957,41.622932 354.748277,41.622932 L354.748277,41.2139741 C354.748277,39.9530141 354.305244,39.0243481 353.419164,38.4279481 C352.533084,37.8315481 351.44254,37.5333526 350.1475,37.5333526 C348.9547,37.5333526 347.804518,37.7889488 346.696918,38.3001488 C345.589318,38.8113487 344.643612,39.4247795 343.859772,40.1404595 L339.616833,35.5908024 Z M369.010685,57.5722915 L369.010685,18.9257665 L377.496562,18.9257665 L377.496562,57.5722915 L369.010685,57.5722915 Z M399.171333,46.4793075 L398.097818,46.4793075 C397.177658,46.4793075 396.248992,46.5219069 395.311792,46.6071068 C394.374592,46.6923068 393.539645,46.8541844 392.806925,47.0927444 C392.074205,47.3313044 391.469294,47.6806191 390.992174,48.1406991 C390.515054,48.6007791 390.276498,49.20569 390.276498,49.95545 C390.276498,50.4325699 390.387256,50.8415238 390.608776,51.1823238 C390.830296,51.5231237 391.111452,51.7957596 391.452252,52.0002396 C391.793052,52.2047196 392.184966,52.3495574 392.628006,52.4347574 C393.071046,52.5199574 393.49704,52.5625568 393.906,52.5625568 C395.609999,52.5625568 396.91354,52.0939639 397.81666,51.1567639 C398.71978,50.2195639 399.171333,48.950103 399.171333,47.3483431 L399.171333,46.4793075 Z M383.784291,35.5908024 C385.283811,34.1594425 387.030384,33.0859386 389.024064,32.3702587 C391.017744,31.6545787 393.053993,31.2967441 395.132873,31.2967441 C397.279913,31.2967441 399.094646,31.5608601 400.577126,32.0891001 C402.059606,32.6173401 403.260908,33.4352478 404.181068,34.5428477 C405.101228,35.6504477 405.774298,37.0477066 406.200297,38.7346666 C406.626297,40.4216265 406.839294,42.4237964 406.839294,44.7412363 L406.839294,57.5722915 L399.171333,57.5722915 L399.171333,54.8629452 L399.017974,54.8629452 C398.370454,55.9194251 397.390668,56.7373328 396.078589,57.3166928 C394.766509,57.8960528 393.34369,58.1857284 391.81009,58.1857284 C390.78769,58.1857284 389.731226,58.0494105 388.640666,57.7767705 C387.550106,57.5041305 386.553281,57.0610972 385.650161,56.4476572 C384.747041,55.8342172 384.005812,55.0163095 383.426452,53.9939096 C382.847092,52.9715096 382.557417,51.7105686 382.557417,50.2110487 C382.557417,48.3707287 383.060089,46.8882711 384.065449,45.7636311 C385.070809,44.6389912 386.36583,43.7699642 387.95055,43.1565243 C389.535269,42.5430843 391.298883,42.1341304 393.241443,41.9296504 C395.184003,41.7251705 397.075414,41.622932 398.915734,41.622932 L398.915734,41.2139741 C398.915734,39.9530141 398.472701,39.0243481 397.586621,38.4279481 C396.700541,37.8315481 395.609997,37.5333526 394.314957,37.5333526 C393.122158,37.5333526 391.971975,37.7889488 390.864375,38.3001488 C389.756775,38.8113487 388.811069,39.4247795 388.027229,40.1404595 L383.784291,35.5908024 Z M443.33879,57.5722915 L434.597314,57.5722915 L420.897223,21.3795141 L430.712214,21.3795141 L439.095852,47.0416247 L439.30033,47.0416247 L447.632848,21.3795141 L457.29448,21.3795141 L443.33879,57.5722915 Z M472.681522,46.4793075 L471.608007,46.4793075 C470.687848,46.4793075 469.759182,46.5219069 468.821982,46.6071068 C467.884782,46.6923068 467.049834,46.8541844 466.317114,47.0927444 C465.584394,47.3313044 464.979483,47.6806191 464.502363,48.1406991 C464.025243,48.6007791 463.786687,49.20569 463.786687,49.95545 C463.786687,50.4325699 463.897445,50.8415238 464.118965,51.1823238 C464.340485,51.5231237 464.621641,51.7957596 464.962441,52.0002396 C465.303241,52.2047196 465.695155,52.3495574 466.138195,52.4347574 C466.581235,52.5199574 467.007229,52.5625568 467.416189,52.5625568 C469.120189,52.5625568 470.423729,52.0939639 471.326849,51.1567639 C472.229969,50.2195639 472.681522,48.950103 472.681522,47.3483431 L472.681522,46.4793075 Z M457.29448,35.5908024 C458.794,34.1594425 460.540573,33.0859386 462.534253,32.3702587 C464.527933,31.6545787 466.564183,31.2967441 468.643062,31.2967441 C470.790102,31.2967441 472.604835,31.5608601 474.087315,32.0891001 C475.569795,32.6173401 476.771097,33.4352478 477.691257,34.5428477 C478.611417,35.6504477 479.284487,37.0477066 479.710487,38.7346666 C480.136487,40.4216265 480.349483,42.4237964 480.349483,44.7412363 L480.349483,57.5722915 L472.681522,57.5722915 L472.681522,54.8629452 L472.528163,54.8629452 C471.880643,55.9194251 470.900858,56.7373328 469.588778,57.3166928 C468.276698,57.8960528 466.853879,58.1857284 465.320279,58.1857284 C464.297879,58.1857284 463.241415,58.0494105 462.150855,57.7767705 C461.060295,57.5041305 460.06347,57.0610972 459.16035,56.4476572 C458.25723,55.8342172 457.516001,55.0163095 456.936642,53.9939096 C456.357282,52.9715096 456.067606,51.7105686 456.067606,50.2110487 C456.067606,48.3707287 456.570278,46.8882711 457.575638,45.7636311 C458.580998,44.6389912 459.876019,43.7699642 461.460739,43.1565243 C463.045459,42.5430843 464.809072,42.1341304 466.751632,41.9296504 C468.694192,41.7251705 470.585603,41.622932 472.425923,41.622932 L472.425923,41.2139741 C472.425923,39.9530141 471.98289,39.0243481 471.09681,38.4279481 C470.21073,37.8315481 469.120187,37.5333526 467.825147,37.5333526 C466.632347,37.5333526 465.482164,37.7889488 464.374564,38.3001488 C463.266964,38.8113487 462.321258,39.4247795 461.537418,40.1404595 L457.29448,35.5908024 Z M474.624072,23.6287828 C474.624072,24.4126227 474.479234,25.1453317 474.189554,25.8269317 C473.899874,26.5085317 473.499441,27.0878829 472.988241,27.5650029 C472.477041,28.0421229 471.88065,28.4169973 471.19905,28.6896372 C470.51745,28.9622772 469.80178,29.0985952 469.05202,29.0985952 C468.26818,29.0985952 467.543991,28.9622772 466.879431,28.6896372 C466.214871,28.4169973 465.627,28.0421229 465.1158,27.5650029 C464.6046,27.0878829 464.204166,26.5170515 463.914486,25.8524916 C463.624806,25.1879316 463.479969,24.4637425 463.479969,23.6799025 C463.479969,22.0781426 464.01672,20.7575625 465.09024,19.7181225 C466.16376,18.6786826 467.48434,18.1589704 469.05202,18.1589704 C469.80178,18.1589704 470.51745,18.2952883 471.19905,18.5679283 C471.88065,18.8405683 472.477041,19.2239625 472.988241,19.7181225 C473.499441,20.2122825 473.899874,20.7916338 474.189554,21.4561937 C474.479234,22.1207537 474.624072,22.8449428 474.624072,23.6287828 L474.624072,23.6287828 Z M472.068085,23.6287828 C472.068085,22.7767828 471.77841,22.0696335 471.19905,21.5073135 C470.61969,20.9449935 469.90402,20.6638377 469.05202,20.6638377 C468.16594,20.6638377 467.441751,20.9535134 466.879431,21.5328734 C466.317111,22.1122333 466.035956,22.8279026 466.035956,23.6799025 C466.035956,24.4978225 466.325631,25.1879321 466.904991,25.7502521 C467.484351,26.312572 468.20002,26.5937278 469.05202,26.5937278 C469.90402,26.5937278 470.61969,26.312572 471.19905,25.7502521 C471.77841,25.1879321 472.068085,24.4807827 472.068085,23.6287828 L472.068085,23.6287828 Z M503.097769,38.9647054 C502.722889,38.8624654 502.356534,38.7943064 501.998694,38.7602264 C501.640854,38.7261464 501.291539,38.7091067 500.950739,38.7091067 C499.8261,38.7091067 498.880394,38.9135836 498.113594,39.3225436 C497.346794,39.7315036 496.733363,40.2256561 496.273283,40.8050161 C495.813203,41.3843761 495.480928,42.0148466 495.276448,42.6964466 C495.071968,43.3780465 494.96973,43.9744376 494.96973,44.4856375 L494.96973,57.5722915 L486.586092,57.5722915 L486.586092,32.11466 L494.663011,32.11466 L494.663011,35.7952814 L494.765251,35.7952814 C495.412771,34.5002415 496.332917,33.4437773 497.525717,32.6258574 C498.718517,31.8079374 500.098736,31.3989836 501.666416,31.3989836 C502.007216,31.3989836 502.339491,31.4160233 502.663251,31.4501033 C502.987011,31.4841833 503.251127,31.5353025 503.455607,31.6034625 L503.097769,38.9647054 Z M525.181497,57.5722915 L525.181497,54.2495083 L525.079258,54.2495083 C524.261338,55.5445482 523.094115,56.5413732 521.577555,57.2400132 C520.060995,57.9386532 518.45074,58.2879679 516.74674,58.2879679 C514.83826,58.2879679 513.134285,57.9130936 511.634766,57.1633336 C510.135246,56.4135736 508.865785,55.4167486 507.826345,54.1728287 C506.786905,52.9289087 505.994557,51.4890504 505.449277,49.8532105 C504.903997,48.2173705 504.631361,46.5133962 504.631361,44.7412363 C504.631361,42.9690763 504.912517,41.2736218 505.474837,39.6548219 C506.037157,38.036022 506.838025,36.6132034 507.877465,35.3863235 C508.916904,34.1594435 510.177845,33.1881781 511.660325,32.4724982 C513.142805,31.7568182 514.80418,31.3989836 516.6445,31.3989836 C518.5189,31.3989836 520.103596,31.7568182 521.398636,32.4724982 C522.693676,33.1881781 523.699021,33.9720063 524.414701,34.8240063 L524.516941,34.8240063 L524.516941,18.9257665 L532.900578,18.9257665 L532.900578,57.5722915 L525.181497,57.5722915 Z M524.874779,44.792356 C524.874779,43.974436 524.729941,43.1735681 524.440261,42.3897281 C524.150581,41.6058882 523.741627,40.9072587 523.213387,40.2938187 C522.685147,39.6803787 522.046157,39.1862262 521.296397,38.8113462 C520.546637,38.4364662 519.69465,38.249029 518.74041,38.249029 C517.75209,38.249029 516.883063,38.4364662 516.133303,38.8113462 C515.383543,39.1862262 514.753072,39.6718589 514.241872,40.2682588 C513.730672,40.8646588 513.347278,41.5547684 513.091678,42.3386084 C512.836078,43.1224483 512.70828,43.9233163 512.70828,44.7412363 C512.70828,45.5591562 512.836078,46.368544 513.091678,47.169424 C513.347278,47.970304 513.730672,48.6774533 514.241872,49.2908933 C514.753072,49.9043333 515.383543,50.3984858 516.133303,50.7733658 C516.883063,51.1482458 517.75209,51.335683 518.74041,51.335683 C519.69465,51.335683 520.546637,51.1482458 521.296397,50.7733658 C522.046157,50.3984858 522.685147,49.9043333 523.213387,49.2908933 C523.741627,48.6774533 524.150581,47.9788238 524.440261,47.1949839 C524.729941,46.4111439 524.874779,45.610276 524.874779,44.792356 L524.874779,44.792356 Z M567.866482,44.7412363 C567.866482,46.5133962 567.593846,48.2173705 567.048566,49.8532105 C566.503286,51.4890504 565.710938,52.9289087 564.671498,54.1728287 C563.632058,55.4167486 562.362597,56.4135736 560.863077,57.1633336 C559.363557,57.9130936 557.659583,58.2879679 555.751103,58.2879679 C554.183423,58.2879679 552.700965,57.9727327 551.303685,57.3422527 C549.906405,56.7117727 548.815862,55.8512657 548.032022,54.7607057 L547.929782,54.7607057 L547.929782,69.8410296 L539.546145,69.8410296 L539.546145,32.11466 L547.520825,32.11466 L547.520825,35.2329642 L547.674184,35.2329642 C548.458024,34.2105643 549.540047,33.3159777 550.920287,32.5491778 C552.300527,31.7823778 553.927823,31.3989836 555.802223,31.3989836 C557.642543,31.3989836 559.312438,31.7568182 560.811957,32.4724982 C562.311477,33.1881781 563.580938,34.1594435 564.620378,35.3863235 C565.659818,36.6132034 566.460686,38.036022 567.023006,39.6548219 C567.585326,41.2736218 567.866482,42.9690763 567.866482,44.7412363 L567.866482,44.7412363 Z M559.738443,44.7412363 C559.738443,43.9233163 559.610645,43.1224483 559.355045,42.3386084 C559.099445,41.5547684 558.72457,40.8646588 558.23041,40.2682588 C557.73625,39.6718589 557.1143,39.1862262 556.36454,38.8113462 C555.61478,38.4364662 554.745753,38.249029 553.757433,38.249029 C552.803193,38.249029 551.951206,38.4364662 551.201446,38.8113462 C550.451686,39.1862262 549.812696,39.6803787 549.284456,40.2938187 C548.756216,40.9072587 548.347262,41.6058882 548.057582,42.3897281 C547.767902,43.1735681 547.623064,43.974436 547.623064,44.792356 C547.623064,45.610276 547.767902,46.4111439 548.057582,47.1949839 C548.347262,47.9788238 548.756216,48.6774533 549.284456,49.2908933 C549.812696,49.9043333 550.451686,50.3984858 551.201446,50.7733658 C551.951206,51.1482458 552.803193,51.335683 553.757433,51.335683 C554.745753,51.335683 555.61478,51.1482458 556.36454,50.7733658 C557.1143,50.3984858 557.73625,49.9043333 558.23041,49.2908933 C558.72457,48.6774533 559.099445,47.970304 559.355045,47.169424 C559.610645,46.368544 559.738443,45.5591562 559.738443,44.7412363 L559.738443,44.7412363 Z M573.234055,57.5722915 L573.234055,18.9257665 L581.719932,18.9257665 L581.719932,57.5722915 L573.234055,57.5722915 Z M603.394703,46.4793075 L602.321188,46.4793075 C601.401028,46.4793075 600.472362,46.5219069 599.535162,46.6071068 C598.597962,46.6923068 597.763015,46.8541844 597.030295,47.0927444 C596.297575,47.3313044 595.692664,47.6806191 595.215544,48.1406991 C594.738424,48.6007791 594.499867,49.20569 594.499867,49.95545 C594.499867,50.4325699 594.610626,50.8415238 594.832146,51.1823238 C595.053666,51.5231237 595.334822,51.7957596 595.675622,52.0002396 C596.016422,52.2047196 596.408336,52.3495574 596.851376,52.4347574 C597.294416,52.5199574 597.720409,52.5625568 598.129369,52.5625568 C599.833369,52.5625568 601.136909,52.0939639 602.040029,51.1567639 C602.943149,50.2195639 603.394703,48.950103 603.394703,47.3483431 L603.394703,46.4793075 Z M588.00766,35.5908024 C589.50718,34.1594425 591.253754,33.0859386 593.247434,32.3702587 C595.241114,31.6545787 597.277363,31.2967441 599.356243,31.2967441 C601.503283,31.2967441 603.318016,31.5608601 604.800496,32.0891001 C606.282975,32.6173401 607.484277,33.4352478 608.404437,34.5428477 C609.324597,35.6504477 609.997667,37.0477066 610.423667,38.7346666 C610.849667,40.4216265 611.062664,42.4237964 611.062664,44.7412363 L611.062664,57.5722915 L603.394703,57.5722915 L603.394703,54.8629452 L603.241343,54.8629452 C602.593823,55.9194251 601.614038,56.7373328 600.301958,57.3166928 C598.989878,57.8960528 597.56706,58.1857284 596.03346,58.1857284 C595.01106,58.1857284 593.954596,58.0494105 592.864036,57.7767705 C591.773476,57.5041305 590.776651,57.0610972 589.873531,56.4476572 C588.970411,55.8342172 588.229182,55.0163095 587.649822,53.9939096 C587.070462,52.9715096 586.780786,51.7105686 586.780786,50.2110487 C586.780786,48.3707287 587.283459,46.8882711 588.288819,45.7636311 C589.294179,44.6389912 590.589199,43.7699642 592.173919,43.1565243 C593.758639,42.5430843 595.522253,42.1341304 597.464813,41.9296504 C599.407372,41.7251705 601.298784,41.622932 603.139104,41.622932 L603.139104,41.2139741 C603.139104,39.9530141 602.696071,39.0243481 601.809991,38.4279481 C600.923911,37.8315481 599.833367,37.5333526 598.538327,37.5333526 C597.345527,37.5333526 596.195344,37.7889488 595.087745,38.3001488 C593.980145,38.8113487 593.034439,39.4247795 592.250599,40.1404595 L588.00766,35.5908024 Z M634.015428,57.5722915 L634.015428,43.6677217 C634.015428,42.9520417 633.955789,42.270452 633.836509,41.622932 C633.717229,40.975412 633.521272,40.4045806 633.248632,39.9104206 C632.975992,39.4162607 632.592598,39.0243466 632.098438,38.7346666 C631.604278,38.4449866 630.982327,38.3001488 630.232567,38.3001488 C629.482807,38.3001488 628.826777,38.4449866 628.264457,38.7346666 C627.702137,39.0243466 627.233544,39.4247805 626.858664,39.9359805 C626.483784,40.4471805 626.202628,41.0350516 626.015188,41.6996116 C625.827748,42.3641716 625.73403,43.0542812 625.73403,43.7699612 L625.73403,57.5722915 L617.299272,57.5722915 L617.299272,32.11466 L625.427311,32.11466 L625.427311,35.6419222 L625.529551,35.6419222 C625.836271,35.0966422 626.236705,34.5598903 626.730865,34.0316503 C627.225025,33.5034103 627.804376,33.0518571 628.468936,32.6769771 C629.133496,32.3020971 629.857685,31.9953818 630.641525,31.7568218 C631.425365,31.5182618 632.260313,31.3989836 633.146393,31.3989836 C634.850392,31.3989836 636.298771,31.705699 637.491571,32.3191389 C638.684371,32.9325789 639.647116,33.724927 640.379836,34.6962069 C641.112556,35.6674869 641.640788,36.7835901 641.964548,38.04455 C642.288308,39.30551 642.450186,40.566451 642.450186,41.827411 L642.450186,57.5722915 L634.015428,57.5722915 Z" id="Din-Digitala-Vårdpla"></path>
            </g>
        </g>
    </g>
</svg>