<?xml version="1.0" encoding="UTF-8"?>
<svg width="800px" height="250px" viewBox="0 0 800 250" version="1.1" xmlns="http://www.w3.org/2000/svg" xmlns:xlink="http://www.w3.org/1999/xlink" xmlns:sketch="http://www.bohemiancoding.com/sketch/ns">
    <!-- Generator: Sketch 3.4.2 (15855) - http://www.bohemiancoding.com/sketch -->
    <title>Logotyp</title>
    <desc>Created with Sketch.</desc>
    <defs></defs>
    <g id="Page-1" stroke="none" stroke-width="1" fill="none" fill-rule="evenodd" sketch:type="MSPage">
        <g id="Logotyp" sketch:type="MSArtboardGroup" fill="#FFFFFF">
            <g id="Din-vårdplan-UF-+-Oval-1" sketch:type="MSLayerGroup" transform="translate(93.000000, 65.000000)">
                <path d="M212.801297,53.4252207 C212.801297,57.9659011 211.959086,61.88401 210.274641,65.1796651 C208.590195,68.4753202 206.368712,71.1850404 203.610127,73.308907 C200.851542,75.4327736 197.739025,76.9951348 194.272484,77.9960375 C190.805943,78.9969401 187.290631,79.4973839 183.726441,79.4973839 L164.392027,79.4973839 L164.392027,27.6460032 L183.140549,27.6460032 C186.802388,27.6460032 190.415349,28.0732113 193.979539,28.9276404 C197.543728,29.7820695 200.717275,31.1979593 203.500272,33.1753524 C206.28327,35.1527454 208.529164,37.8014359 210.238022,41.1215033 C211.946881,44.4415706 212.801297,48.5427687 212.801297,53.4252207 L212.801297,53.4252207 Z M199.765215,53.4252207 C199.765215,50.4957495 199.289183,48.0667661 198.337105,46.1381976 C197.385027,44.2096291 196.115609,42.6716797 194.528812,41.5243035 C192.942015,40.3769273 191.135535,39.5591289 189.109317,39.0708837 C187.083099,38.5826385 184.995883,38.3385195 182.847604,38.3385195 L176.622509,38.3385195 L176.622509,68.6583947 L182.554658,68.6583947 C184.800586,68.6583947 186.961039,68.4020699 189.036081,67.8894124 C191.111123,67.3767549 192.942015,66.5345446 194.528812,65.3627561 C196.115609,64.1909677 197.385027,62.6286065 198.337105,60.6756257 C199.289183,58.7226449 199.765215,56.3058674 199.765215,53.4252207 L199.765215,53.4252207 Z M233.453965,31.3810603 C233.453965,32.3087261 233.270876,33.1753484 232.904692,33.9809529 C232.538508,34.7865575 232.050271,35.4822965 231.439964,36.0681907 C230.829658,36.654085 230.097301,37.1179109 229.242872,37.4596826 C228.388443,37.8014542 227.497408,37.9723375 226.569743,37.9723375 C224.616762,37.9723375 222.981165,37.3254223 221.662903,36.0315725 C220.344641,34.7377227 219.68552,33.1875675 219.68552,31.3810603 C219.68552,30.5022189 219.856403,29.6600086 220.198175,28.854404 C220.539946,28.0487994 221.028184,27.3530605 221.662903,26.7671662 C222.297622,26.181272 223.029978,25.7052401 223.859995,25.3390562 C224.690012,24.9728723 225.593252,24.7897831 226.569743,24.7897831 C227.497408,24.7897831 228.388443,24.9606663 229.242872,25.3024379 C230.097301,25.6442096 230.829658,26.1080356 231.439964,26.6939298 C232.050271,27.279824 232.538508,27.975563 232.904692,28.7811676 C233.270876,29.5867722 233.453965,30.4533944 233.453965,31.3810603 L233.453965,31.3810603 Z M220.564357,79.4973839 L220.564357,43.02565 L232.575128,43.02565 L232.575128,79.4973839 L220.564357,79.4973839 Z M266.044169,79.4973839 L266.044169,59.5770795 C266.044169,58.5517645 265.958728,57.5752888 265.787842,56.6476229 C265.616956,55.719957 265.336219,54.9021586 264.945623,54.1942031 C264.555027,53.4862475 264.005759,52.924774 263.297804,52.5097656 C262.589848,52.0947571 261.698814,51.887256 260.624675,51.887256 C259.550535,51.887256 258.610677,52.0947571 257.805073,52.5097656 C256.999468,52.924774 256.328141,53.4984535 255.791072,54.2308213 C255.254002,54.9631891 254.851206,55.8053994 254.582671,56.7574775 C254.314136,57.7095557 254.17987,58.6982374 254.17987,59.7235523 L254.17987,79.4973839 L242.095862,79.4973839 L242.095862,43.02565 L253.740452,43.02565 L253.740452,48.0789625 L253.886925,48.0789625 C254.326345,47.2977702 254.900025,46.5287956 255.607981,45.7720155 C256.315936,45.0152355 257.14594,44.3683203 258.098019,43.8312506 C259.050097,43.2941808 260.087602,42.8547668 261.210566,42.5129951 C262.33353,42.1712235 263.529713,42.0003402 264.79915,42.0003402 C267.240376,42.0003402 269.315387,42.4397543 271.024246,43.3185957 C272.733104,44.197437 274.112376,45.3325901 275.162103,46.7240889 C276.21183,48.1155877 276.968599,49.7145667 277.432432,51.521074 C277.896265,53.3275812 278.128178,55.1340613 278.128178,56.9405686 L278.128178,79.4973839 L266.044169,79.4973839 Z M328.075412,79.4973839 L315.112566,79.4973839 L300.758229,43.02565 L314.01402,43.02565 L321.703844,66.6810116 L321.923553,66.6810116 L329.613376,43.02565 L342.429749,43.02565 L328.075412,79.4973839 Z M368.575148,63.6050822 L367.037184,63.6050822 C365.718922,63.6050822 364.388473,63.6661119 363.045799,63.7881732 C361.703125,63.9102345 360.506942,64.1421475 359.457215,64.4839192 C358.407488,64.8256908 357.540865,65.3261346 356.857322,65.9852656 C356.173779,66.6443967 355.832012,67.5110189 355.832012,68.5851583 C355.832012,69.2687016 355.99069,69.854587 356.308049,70.3428322 C356.625408,70.8310774 357.028205,71.2216677 357.51645,71.5146149 C358.004695,71.807562 358.566169,72.0150631 359.200887,72.1371244 C359.835606,72.2591857 360.445903,72.3202154 361.031798,72.3202154 C363.473024,72.3202154 365.340534,71.6488883 366.634383,70.306214 C367.928233,68.9635397 368.575148,67.1448537 368.575148,64.8501012 L368.575148,63.6050822 Z M346.530988,48.0057261 C348.679267,45.9550963 351.181486,44.417147 354.03772,43.3918321 C356.893955,42.3665172 359.811176,41.8538674 362.789472,41.8538674 C365.865416,41.8538674 368.465283,42.2322517 370.58915,42.9890318 C372.713016,43.7458119 374.434055,44.9175828 375.752317,46.5043797 C377.070579,48.0911765 378.034849,50.0929518 378.645155,52.5097656 C379.255462,54.9265793 379.56061,57.7949768 379.56061,61.1150441 L379.56061,79.4973839 L368.575148,79.4973839 L368.575148,75.615854 L368.355439,75.615854 C367.427773,77.1294141 366.024089,78.301185 364.144345,79.1312019 C362.264601,79.9612187 360.226208,80.3762209 358.029105,80.3762209 C356.564369,80.3762209 355.050832,80.1809257 353.488447,79.7903296 C351.926063,79.3997334 350.497967,78.7650242 349.204117,77.8861828 C347.910267,77.0073415 346.84835,75.8355706 346.018333,74.370835 C345.188316,72.9060994 344.773314,71.0996193 344.773314,68.9513404 C344.773314,66.3148163 345.493465,64.1909816 346.933788,62.5797724 C348.374111,60.9685633 350.229415,59.7235567 352.499756,58.8447153 C354.770096,57.965874 357.296727,57.3799885 360.079724,57.0870414 C362.862722,56.7940943 365.572442,56.6476229 368.208966,56.6476229 L368.208966,56.0617316 C368.208966,54.2552244 367.574257,52.9247762 366.30482,52.0703471 C365.035382,51.215918 363.473021,50.7887098 361.617689,50.7887098 C359.908831,50.7887098 358.261028,51.1548882 356.674231,51.887256 C355.087434,52.6196238 353.732574,53.498452 352.60961,54.5237669 L346.530988,48.0057261 Z M371.358132,30.8684054 C371.358132,31.9913693 371.150631,33.0410808 370.735623,34.0175712 C370.320614,34.9940615 369.746935,35.8240659 369.014567,36.5076092 C368.282199,37.1911525 367.427783,37.7282141 366.451292,38.1188103 C365.474802,38.5094065 364.449502,38.7047016 363.375363,38.7047016 C362.252399,38.7047016 361.214894,38.5094065 360.262815,38.1188103 C359.310737,37.7282141 358.468527,37.1911525 357.736159,36.5076092 C357.003791,35.8240659 356.430112,35.0062675 356.015103,34.0541894 C355.600095,33.1021112 355.392594,32.0646057 355.392594,30.9416418 C355.392594,28.6468894 356.161569,26.7549676 357.699541,25.2658197 C359.237513,23.7766719 361.129435,23.0321091 363.375363,23.0321091 C364.449502,23.0321091 365.474802,23.2274043 366.451292,23.6180004 C367.427783,24.0085966 368.282199,24.5578642 369.014567,25.2658197 C369.746935,25.9737753 370.320614,26.8037797 370.735623,27.7558578 C371.150631,28.7079359 371.358132,29.7454414 371.358132,30.8684054 L371.358132,30.8684054 Z M367.696311,30.8684054 C367.696311,29.6477924 367.281309,28.6346988 366.451292,27.8290942 C365.621275,27.0234896 364.595976,26.6206934 363.375363,26.6206934 C362.105925,26.6206934 361.06842,27.0356956 360.262815,27.8657124 C359.457211,28.6957293 359.054415,29.7210288 359.054415,30.9416418 C359.054415,32.1134303 359.469417,33.102112 360.299434,33.9077165 C361.12945,34.7133211 362.15475,35.1161174 363.375363,35.1161174 C364.595976,35.1161174 365.621275,34.7133211 366.451292,33.9077165 C367.281309,33.102112 367.696311,32.0890184 367.696311,30.8684054 L367.696311,30.8684054 Z M412.150814,52.8393294 C411.613745,52.6928559 411.088889,52.5952083 410.576231,52.5463838 C410.063574,52.4975592 409.56313,52.4731474 409.074885,52.4731474 C407.463676,52.4731474 406.108816,52.7660901 405.010264,53.3519843 C403.911712,53.9378786 403.032884,54.6458235 402.373753,55.4758403 C401.714622,56.3058571 401.23859,57.2090972 400.945643,58.1855876 C400.652696,59.162078 400.506225,60.0164943 400.506225,60.7488621 L400.506225,79.4973839 L388.495453,79.4973839 L388.495453,43.02565 L400.066806,43.02565 L400.066806,48.2986718 L400.213279,48.2986718 C401.140945,46.44334 402.459187,44.9298026 404.168045,43.7580141 C405.876903,42.5862257 407.854267,42.0003402 410.100195,42.0003402 C410.58844,42.0003402 411.064472,42.0247521 411.528305,42.0735766 C411.992138,42.1224012 412.370522,42.1956368 412.663469,42.2932859 L412.150814,52.8393294 Z M445.1072,79.4973839 L445.1072,74.7370171 L444.960728,74.7370171 C443.788939,76.5923488 442.116724,78.0204446 439.944033,79.0213472 C437.771342,80.0222499 435.464418,80.5226937 433.023192,80.5226937 C430.289019,80.5226937 427.84783,79.9856321 425.699551,78.9114926 C423.551272,77.8373532 421.732586,76.4092574 420.243438,74.6271624 C418.75429,72.8450675 417.619137,70.7822624 416.837945,68.4386855 C416.056752,66.0951085 415.666162,63.6539192 415.666162,61.1150441 C415.666162,58.5761691 416.068958,56.1471857 416.874563,53.828021 C417.680168,51.5088563 418.827527,49.4704632 420.316674,47.7127805 C421.805822,45.9550978 423.612302,44.5636198 425.736169,43.5383049 C427.860036,42.51299 430.240195,42.0003402 432.876719,42.0003402 C435.562068,42.0003402 437.832374,42.51299 439.687706,43.5383049 C441.543038,44.5636198 442.983339,45.6865669 444.008654,46.9071799 L444.155127,46.9071799 L444.155127,24.1306553 L456.165899,24.1306553 L456.165899,79.4973839 L445.1072,79.4973839 Z M444.667782,61.1882806 C444.667782,60.0164921 444.460281,58.8691331 444.045272,57.7461691 C443.630264,56.6232052 443.044379,55.6223175 442.287599,54.7434762 C441.530818,53.8646348 440.615372,53.1566899 439.541233,52.6196202 C438.467094,52.0825505 437.246499,51.8140196 435.879412,51.8140196 C434.463501,51.8140196 433.218495,52.0825505 432.144355,52.6196202 C431.070216,53.1566899 430.166976,53.8524289 429.434608,54.706858 C428.70224,55.5612871 428.152973,56.5499688 427.786789,57.6729327 C427.420605,58.7958967 427.237516,59.9432557 427.237516,61.1150441 C427.237516,62.2868326 427.420605,63.4463976 427.786789,64.5937738 C428.152973,65.74115 428.70224,66.7542436 429.434608,67.6330849 C430.166976,68.5119263 431.070216,69.2198712 432.144355,69.7569409 C433.218495,70.2940107 434.463501,70.5625415 435.879412,70.5625415 C437.246499,70.5625415 438.467094,70.2940107 439.541233,69.7569409 C440.615372,69.2198712 441.530818,68.5119263 442.287599,67.6330849 C443.044379,66.7542436 443.630264,65.7533559 444.045272,64.630392 C444.460281,63.507428 444.667782,62.360069 444.667782,61.1882806 L444.667782,61.1882806 Z M506.259606,61.1150441 C506.259606,63.6539192 505.869015,66.0951085 505.087823,68.4386855 C504.306631,70.7822624 503.171478,72.8450675 501.68233,74.6271624 C500.193182,76.4092574 498.374496,77.8373532 496.226217,78.9114926 C494.077938,79.9856321 491.636749,80.5226937 488.902576,80.5226937 C486.656648,80.5226937 484.532813,80.0710737 482.531008,79.1678201 C480.529202,78.2645665 478.966841,77.0317658 477.843877,75.4693812 L477.697404,75.4693812 L477.697404,97.0741232 L465.686633,97.0741232 L465.686633,43.02565 L477.111513,43.02565 L477.111513,47.4930712 L477.331222,47.4930712 C478.454186,46.0283356 480.004342,44.7467112 481.981735,43.6481595 C483.959128,42.5496078 486.290464,42.0003402 488.975812,42.0003402 C491.612336,42.0003402 494.004702,42.51299 496.152981,43.5383049 C498.301259,44.5636198 500.119946,45.9550978 501.609093,47.7127805 C503.098241,49.4704632 504.2456,51.5088563 505.051205,53.828021 C505.856809,56.1471857 506.259606,58.5761691 506.259606,61.1150441 L506.259606,61.1150441 Z M494.615016,61.1150441 C494.615016,59.9432557 494.431927,58.7958967 494.065743,57.6729327 C493.699559,56.5499688 493.162497,55.5612871 492.454542,54.706858 C491.746586,53.8524289 490.855552,53.1566899 489.781413,52.6196202 C488.707273,52.0825505 487.462267,51.8140196 486.046356,51.8140196 C484.679269,51.8140196 483.458674,52.0825505 482.384535,52.6196202 C481.310395,53.1566899 480.394949,53.8646348 479.638169,54.7434762 C478.881389,55.6223175 478.295504,56.6232052 477.880495,57.7461691 C477.465487,58.8691331 477.257986,60.0164921 477.257986,61.1882806 C477.257986,62.360069 477.465487,63.507428 477.880495,64.630392 C478.295504,65.7533559 478.881389,66.7542436 479.638169,67.6330849 C480.394949,68.5119263 481.310395,69.2198712 482.384535,69.7569409 C483.458674,70.2940107 484.679269,70.5625415 486.046356,70.5625415 C487.462267,70.5625415 488.707273,70.2940107 489.781413,69.7569409 C490.855552,69.2198712 491.746586,68.5119263 492.454542,67.6330849 C493.162497,66.7542436 493.699559,65.74115 494.065743,64.5937738 C494.431927,63.4463976 494.615016,62.2868326 494.615016,61.1150441 L494.615016,61.1150441 Z M513.949429,79.4973839 L513.949429,24.1306553 L526.106674,24.1306553 L526.106674,79.4973839 L513.949429,79.4973839 Z M557.158913,63.6050822 L555.620948,63.6050822 C554.302686,63.6050822 552.972238,63.6661119 551.629564,63.7881732 C550.28689,63.9102345 549.090707,64.1421475 548.04098,64.4839192 C546.991252,64.8256908 546.12463,65.3261346 545.441087,65.9852656 C544.757544,66.6443967 544.415777,67.5110189 544.415777,68.5851583 C544.415777,69.2687016 544.574454,69.854587 544.891814,70.3428322 C545.209173,70.8310774 545.611969,71.2216677 546.100215,71.5146149 C546.58846,71.807562 547.149933,72.0150631 547.784652,72.1371244 C548.419371,72.2591857 549.029668,72.3202154 549.615562,72.3202154 C552.056788,72.3202154 553.924298,71.6488883 555.218148,70.306214 C556.511998,68.9635397 557.158913,67.1448537 557.158913,64.8501012 L557.158913,63.6050822 Z M535.114753,48.0057261 C537.263031,45.9550963 539.765251,44.417147 542.621485,43.3918321 C545.477719,42.3665172 548.394941,41.8538674 551.373236,41.8538674 C554.449181,41.8538674 557.049048,42.2322517 559.172914,42.9890318 C561.296781,43.7458119 563.01782,44.9175828 564.336082,46.5043797 C565.654344,48.0911765 566.618613,50.0929518 567.22892,52.5097656 C567.839226,54.9265793 568.144375,57.7949768 568.144375,61.1150441 L568.144375,79.4973839 L557.158913,79.4973839 L557.158913,75.615854 L556.939204,75.615854 C556.011538,77.1294141 554.607854,78.301185 552.72811,79.1312019 C550.848366,79.9612187 548.809973,80.3762209 546.61287,80.3762209 C545.148134,80.3762209 543.634597,80.1809257 542.072212,79.7903296 C540.509827,79.3997334 539.081731,78.7650242 537.787882,77.8861828 C536.494032,77.0073415 535.432115,75.8355706 534.602098,74.370835 C533.772081,72.9060994 533.357079,71.0996193 533.357079,68.9513404 C533.357079,66.3148163 534.07723,64.1909816 535.517553,62.5797724 C536.957876,60.9685633 538.81318,59.7235567 541.08352,58.8447153 C543.35386,57.965874 545.880491,57.3799885 548.663489,57.0870414 C551.446487,56.7940943 554.156207,56.6476229 556.792731,56.6476229 L556.792731,56.0617316 C556.792731,54.2552244 556.158022,52.9247762 554.888584,52.0703471 C553.619147,51.215918 552.056786,50.7887098 550.201454,50.7887098 C548.492596,50.7887098 546.844793,51.1548882 545.257996,51.887256 C543.671199,52.6196238 542.316339,53.498452 541.193375,54.5237669 L535.114753,48.0057261 Z M601.027525,79.4973839 L601.027525,59.5770795 C601.027525,58.5517645 600.942083,57.5752888 600.771197,56.6476229 C600.600311,55.719957 600.319575,54.9021586 599.928979,54.1942031 C599.538382,53.4862475 598.989115,52.924774 598.281159,52.5097656 C597.573204,52.0947571 596.68217,51.887256 595.60803,51.887256 C594.533891,51.887256 593.594033,52.0947571 592.788428,52.5097656 C591.982824,52.924774 591.311497,53.4984535 590.774427,54.2308213 C590.237357,54.9631891 589.834561,55.8053994 589.566026,56.7574775 C589.297491,57.7095557 589.163226,58.6982374 589.163226,59.7235523 L589.163226,79.4973839 L577.079218,79.4973839 L577.079218,43.02565 L588.723807,43.02565 L588.723807,48.0789625 L588.87028,48.0789625 C589.309701,47.2977702 589.88338,46.5287956 590.591336,45.7720155 C591.299291,45.0152355 592.129296,44.3683203 593.081374,43.8312506 C594.033452,43.2941808 595.070958,42.8547668 596.193921,42.5129951 C597.316885,42.1712235 598.513068,42.0003402 599.782506,42.0003402 C602.223732,42.0003402 604.298743,42.4397543 606.007601,43.3185957 C607.716459,44.197437 609.095731,45.3325901 610.145458,46.7240889 C611.195185,48.1155877 611.951954,49.7145667 612.415787,51.521074 C612.87962,53.3275812 613.111533,55.1340613 613.111533,56.9405686 L613.111533,79.4973839 L601.027525,79.4973839 Z" id="Din-vårdplan-UF" sketch:type="MSShapeGroup"></path>
                <path d="M71.1150036,48.8747784 L71.1150036,23.520667 L48.758328,23.520667 L48.758328,48.8747784 L23.4042166,48.8747784 L23.4042166,71.2314539 L48.758328,71.2314539 L48.758328,96.5855653 L71.1150036,96.5855653 L71.1150036,71.2314539 L96.4691149,71.2314539 L96.4691149,48.8747784 L71.1150036,48.8747784 Z M59.9366658,119.762065 C92.9130078,119.762065 119.645615,93.0294582 119.645615,60.0531161 C119.645615,27.0767741 92.9130078,0.344167039 59.9366658,0.344167039 C26.9603238,0.344167039 0.227716662,27.0767741 0.227716662,60.0531161 C0.227716662,93.0294582 26.9603238,119.762065 59.9366658,119.762065 Z" id="Oval-1" sketch:type="MSShapeGroup"></path>
            </g>
        </g>
    </g>
</svg>