<svg xmlns="http://www.w3.org/2000/svg" xmlns:xlink="http://www.w3.org/1999/xlink" viewBox="0 0 50 50" version="1.1">
<g id="surface1">
<path style=" " d="M 25 0 C 18.183594 0 12.175781 2.226563 8.5625 6.75 C 5.011719 11.195313 3.914063 17.761719 6.40625 26.0625 C 5.867188 26.734375 5.5 27.597656 5.5 28.6875 C 5.5 30.835938 6.992188 32.617188 8.9375 33.1875 C 9.390625 36.980469 11.316406 40.953125 14.09375 44.125 C 17.046875 47.496094 20.929688 50 25 50 C 29.070313 50 32.964844 47.511719 35.90625 44.125 C 38.675781 40.9375 40.566406 36.90625 40.96875 33.0625 C 42.925781 32.507813 44.390625 30.792969 44.40625 28.625 C 44.40625 28.613281 44.40625 28.605469 44.40625 28.59375 C 44.429688 27.546875 44.097656 26.664063 43.59375 26 C 43.96875 24.800781 45.078125 20.941406 45 16.6875 C 44.953125 14.148438 44.480469 11.480469 43.03125 9.28125 C 41.636719 7.167969 39.292969 5.59375 35.90625 5.09375 C 34.191406 2.945313 30.78125 0 25 0 Z M 25 2 C 30.347656 2 33.214844 4.757813 34.59375 6.59375 C 34.757813 6.820313 35.003906 6.964844 35.28125 7 C 38.421875 7.371094 40.226563 8.636719 41.375 10.375 C 42.523438 12.113281 42.957031 14.410156 43 16.71875 C 43.058594 19.9375 42.347656 23.027344 41.90625 24.65625 C 41.8125 24.613281 41.71875 24.570313 41.625 24.53125 C 40.972656 24.265625 40.332031 24.128906 39.84375 24.0625 C 39.34375 18.925781 37.53125 16.203125 35.5 14.46875 C 34.304688 13.449219 33.109375 12.773438 32.125 12.0625 C 31.140625 11.351563 30.386719 10.65625 29.90625 9.59375 C 29.726563 9.179688 29.292969 8.933594 28.84375 9 C 28.683594 9.027344 28.535156 9.089844 28.40625 9.1875 C 27.734375 9.675781 27.597656 10.269531 27.34375 10.875 C 27.089844 11.480469 26.828125 12.160156 26.40625 12.84375 C 25.558594 14.214844 24.1875 15.644531 21.0625 16.4375 C 17.332031 17.394531 14.609375 18.242188 12.71875 19.90625 C 11.523438 20.957031 10.78125 22.320313 10.375 24.0625 C 9.886719 24.121094 9.203125 24.246094 8.375 24.59375 C 8.292969 24.628906 8.210938 24.675781 8.125 24.71875 C 6.050781 17.238281 7.144531 11.734375 10.125 8 C 13.261719 4.074219 18.617188 2 25 2 Z M 29.0625 11.875 C 29.632813 12.578125 30.257813 13.195313 30.9375 13.6875 C 32.042969 14.484375 33.199219 15.132813 34.21875 16 C 36.253906 17.738281 38 20.285156 38 27 C 37.996094 27.359375 38.183594 27.695313 38.496094 27.878906 C 38.808594 28.058594 39.191406 28.058594 39.503906 27.878906 C 39.816406 27.695313 40.003906 27.359375 40 27 C 40 26.699219 39.976563 26.414063 39.96875 26.125 C 40.257813 26.179688 40.5625 26.25 40.875 26.375 C 41.121094 26.476563 41.363281 26.601563 41.5625 26.75 C 41.648438 26.933594 41.792969 27.085938 41.96875 27.1875 C 42.226563 27.515625 42.425781 27.882813 42.40625 28.5625 L 42.40625 28.59375 C 42.40625 30.128906 41.433594 31.160156 40 31.3125 L 39.15625 31.40625 L 39.09375 32.25 C 38.910156 35.695313 37.058594 39.722656 34.375 42.8125 C 31.691406 45.902344 28.230469 48 25 48 C 21.769531 48 18.289063 45.890625 15.59375 42.8125 C 12.898438 39.734375 11.042969 35.742188 10.8125 32.34375 L 10.75 31.5 L 9.90625 31.40625 C 8.628906 31.265625 7.5 30.0625 7.5 28.6875 C 7.5 27.898438 7.726563 27.390625 8.09375 27.03125 C 8.136719 27.003906 8.179688 26.972656 8.21875 26.9375 C 8.476563 26.71875 8.78125 26.550781 9.125 26.40625 C 9.441406 26.273438 9.742188 26.183594 10.03125 26.125 C 10 26.566406 10 27.019531 10 27.5 C 9.996094 27.859375 10.183594 28.195313 10.496094 28.378906 C 10.808594 28.558594 11.191406 28.558594 11.503906 28.378906 C 11.816406 28.195313 12.003906 27.859375 12 27.5 C 12 24.292969 12.625 22.644531 14.03125 21.40625 C 15.433594 20.171875 17.882813 19.3125 21.53125 18.375 C 21.542969 18.371094 21.550781 18.378906 21.5625 18.375 C 25.117188 17.464844 27.042969 15.574219 28.09375 13.875 C 28.5625 13.117188 28.828125 12.441406 29.0625 11.875 Z M 25 24 C 22.945313 24 21.203125 25.089844 20.90625 25.28125 C 20.148438 25.078125 19.335938 25 18.5 25 C 17.144531 25 15.847656 25.203125 14.78125 25.875 C 13.714844 26.546875 13 27.796875 13 29.3125 C 13 32.425781 15.441406 35 18.5 35 C 21.558594 35 24 32.425781 24 29.3125 C 24 28.179688 23.621094 27.175781 23 26.46875 C 23.605469 26.222656 24.351563 26 25 26 C 25.648438 26 26.394531 26.222656 27 26.46875 C 26.378906 27.175781 26 28.179688 26 29.3125 C 26 32.425781 28.441406 35 31.5 35 C 34.558594 35 37 32.425781 37 29.3125 C 37 27.796875 36.285156 26.546875 35.21875 25.875 C 34.152344 25.203125 32.855469 25 31.5 25 C 30.664063 25 29.851563 25.078125 29.09375 25.28125 C 28.796875 25.089844 27.054688 24 25 24 Z M 18.5 27 C 19.65625 27 20.605469 27.191406 21.15625 27.53125 C 21.707031 27.871094 22 28.269531 22 29.3125 C 22 31.398438 20.441406 33 18.5 33 C 16.558594 33 15 31.398438 15 29.3125 C 15 28.328125 15.285156 27.914063 15.84375 27.5625 C 16.402344 27.210938 17.355469 27 18.5 27 Z M 31.5 27 C 32.644531 27 33.597656 27.210938 34.15625 27.5625 C 34.714844 27.914063 35 28.328125 35 29.3125 C 35 31.398438 33.441406 33 31.5 33 C 29.558594 33 28 31.398438 28 29.3125 C 28 28.269531 28.292969 27.871094 28.84375 27.53125 C 29.394531 27.191406 30.34375 27 31.5 27 Z "></path>
</g>
</svg>